<?xml version="1.0" standalone="no"?>
<!DOCTYPE svg PUBLIC "-//W3C//DTD SVG 1.1//EN" "http://www.w3.org/Graphics/SVG/1.1/DTD/svg11.dtd" >
<svg xmlns="http://www.w3.org/2000/svg" xmlns:xlink="http://www.w3.org/1999/xlink" version="1.1">
<metadata>
Created by FontForge 20201107 at Sat Jul 16 09:23:58 2022
 By 
Copyright (c) 2021 by Eko Bimantara. All rights reserved.
</metadata>
<defs>
<font id="AltoneTrial-BoldOblique" horiz-adv-x="844" >
  <font-face 
    font-family="Altone Trial"
    font-weight="700"
    font-style="oblique"
    font-stretch="normal"
    units-per-em="1000"
    panose-1="0 0 0 0 0 0 0 0 0 0"
    ascent="800"
    descent="-200"
    x-height="528"
    cap-height="670"
    bbox="-86 -212 1354 927"
    underline-thickness="50"
    underline-position="-125"
    unicode-range="U+000D-2212"
  />
<missing-glyph 
d="M90 664h664v-664h-664v664zM391 173l21 -50h86q63 0 98 26t35 76q0 38 -19 64t-57 38q26 15 43.5 37.5t17.5 54.5q0 46 -35.5 71t-97.5 25h-61l-5 26h-209v-368h183zM396 327l16 -42h76q31 0 41.5 -12t10.5 -28q0 -15 -10 -30.5t-37 -15.5h-66l-10 51h-128v77h107z
M289 403v62h112l11 -26h57q15 0 24.5 -4.5t15.5 -10.5t8 -13t2 -13q0 -16 -9.5 -30.5t-35.5 -14.5h-47l-10 50h-128z" />
    <glyph glyph-name=".notdef" 
d="M90 664h664v-664h-664v664zM391 173l21 -50h86q63 0 98 26t35 76q0 38 -19 64t-57 38q26 15 43.5 37.5t17.5 54.5q0 46 -35.5 71t-97.5 25h-61l-5 26h-209v-368h183zM396 327l16 -42h76q31 0 41.5 -12t10.5 -28q0 -15 -10 -30.5t-37 -15.5h-66l-10 51h-128v77h107z
M289 403v62h112l11 -26h57q15 0 24.5 -4.5t15.5 -10.5t8 -13t2 -13q0 -16 -9.5 -30.5t-35.5 -14.5h-47l-10 50h-128z" />
    <glyph glyph-name=".null" horiz-adv-x="0" 
 />
    <glyph glyph-name=".null" horiz-adv-x="0" 
 />
    <glyph glyph-name="uni000D" unicode="&#xd;" horiz-adv-x="0" 
 />
    <glyph glyph-name="space" unicode=" " horiz-adv-x="250" 
 />
    <glyph glyph-name="exclam" unicode="!" horiz-adv-x="285" 
d="M128 670h161l-88 -472h-135zM35 70q3 16 11 30.5t20.5 25t28 16.5t32.5 6q32 0 49.5 -20.5t17.5 -44.5q0 -6 -1 -13q-5 -34 -32 -57t-59 -23q-34 0 -51 20.5t-17 45.5q0 7 1 14z" />
    <glyph glyph-name="quotedbl" unicode="&#x22;" horiz-adv-x="370" 
d="M109 721h127l-46 -225h-108zM283 721h126l-45 -225h-108z" />
    <glyph glyph-name="numbersign" unicode="#" horiz-adv-x="686" 
d="M263 670h136l-41 -137h120l41 137h136l-41 -137h102l-44 -136h-101l-38 -124h103l-43 -136h-102l-42 -137h-136l42 137h-120l-42 -137h-136l42 137h-102l43 136h101l38 124h-103l44 136h102zM277 273h120l38 124h-120z" />
    <glyph glyph-name="dollar" unicode="$" horiz-adv-x="649" 
d="M90 472q14 85 74 137t158 66l18 114h145l-19 -115q93 -16 128 -64.5t35 -108.5q0 -20 -3 -41h-158q1 9 1 16q0 31 -21 53.5t-83 22.5q-50 0 -81 -18.5t-36 -52.5q-1 -5 -1 -11q0 -14 7.5 -26.5t25 -22.5t41 -16.5t50.5 -12.5q41 -9 85.5 -19.5t79 -31t50 -50t15.5 -63.5
q0 -17 -3 -36q-13 -80 -72 -132t-167 -65l-23 -148h-145l23 148q-105 15 -144 64.5t-39 109.5q0 19 3 40h158v-10q0 -38 28.5 -60t90.5 -22q54 0 87 18t38 50q1 7 1 12q0 14 -8 26t-27 21t-44.5 15t-54.5 11q-40 8 -82 18t-74 31.5t-46 51.5t-14 63q0 18 3 38z" />
    <glyph glyph-name="percent" unicode="%" horiz-adv-x="966" 
d="M71 483q15 92 74 144.5t144 52.5t121 -45.5t36 -105.5q0 -22 -4 -46q-7 -46 -26 -82.5t-47 -62t-64.5 -39t-78.5 -13.5q-85 0 -121.5 46t-36.5 107q0 21 3 44zM203 0l466 670h121l-466 -670h-121zM195 483q-3 -17 -3 -31q0 -22 10 -42t41 -20q30 0 50 25t27 68q3 16 3 29
q0 23 -10 43.5t-41 20.5t-50.5 -25t-26.5 -68zM550 187q7 46 26 82.5t47.5 62t65 39t78.5 13.5q85 0 121.5 -46t36.5 -107q0 -21 -4 -44q-15 -92 -73.5 -144.5t-143.5 -52.5t-121.5 45.5t-36.5 105.5q0 22 4 46zM673 187q-3 -16 -3 -29q0 -23 10 -43.5t41 -20.5t51 25t27 68
q3 16 3 29q0 23 -10 43.5t-41 20.5t-51 -25t-27 -68z" />
    <glyph glyph-name="ampersand" unicode="&#x26;" horiz-adv-x="707" 
d="M695 394l-19 -117h-68l-37 -238q-23 -9 -55 -18t-70.5 -16t-81 -11t-86.5 -4q-138 0 -197 46.5t-59 116.5q0 16 3 33q9 60 53 101.5t114 58.5q-47 20 -66 55.5t-19 72.5q0 13 2 27q6 36 26 66.5t54 53.5t82 36t108 13h159l-20 -129h-127q-108 0 -118 -66q-1 -7 -1 -13
q0 -29 26 -48.5t85 -19.5h312zM454 277h-109q-74 0 -109.5 -18t-41.5 -59q-1 -7 -1 -14q0 -30 29 -49t98 -19q35 0 63.5 4.5t48.5 10.5z" />
    <glyph glyph-name="quotesingle" unicode="'" horiz-adv-x="197" 
d="M109 721h127l-46 -225h-108z" />
    <glyph glyph-name="parenleft" unicode="(" horiz-adv-x="381" 
d="M65 310q20 125 74 236.5t147 213.5h140q-87 -109 -140.5 -224.5t-70.5 -225.5q-8 -55 -8 -111q0 -57 12.5 -143.5t64.5 -195.5h-140q-62 103 -75.5 185t-13.5 138q0 62 10 127z" />
    <glyph glyph-name="parenright" unicode=")" horiz-adv-x="381" 
d="M334 310q-20 -126 -73.5 -236.5t-147.5 -213.5h-140q87 109 140.5 224.5t70.5 225.5q9 55 9 111q0 57 -13 143.5t-65 195.5h140q62 -103 75.5 -185t13.5 -138q0 -62 -10 -127z" />
    <glyph glyph-name="asterisk" unicode="*" horiz-adv-x="550" 
d="M195 292l-91 75l113 113l-140 38l58 120l138 -58l15 160h126l-35 -161l157 59l21 -120l-152 -38l75 -113l-113 -75l-65 136z" />
    <glyph glyph-name="plus" unicode="+" horiz-adv-x="467" 
d="M35 345h139v139h120v-139h138v-120h-138v-138h-120v138h-139v120z" />
    <glyph glyph-name="comma" unicode="," horiz-adv-x="247" 
d="M50 109h132l-96 -236h-104z" />
    <glyph glyph-name="hyphen" unicode="-" horiz-adv-x="358" 
d="M50 346h288l-19 -120h-288z" />
    <glyph glyph-name="period" unicode="." horiz-adv-x="242" 
d="M13 70q3 16 11 30.5t20.5 25t28 16.5t32.5 6q32 0 49.5 -20.5t17.5 -44.5q0 -6 -1 -13q-5 -34 -32 -57t-59 -23q-34 0 -51 20.5t-17 45.5q0 7 1 14z" />
    <glyph glyph-name="slash" unicode="/" horiz-adv-x="420" 
d="M376 710h116l-422 -750h-116z" />
    <glyph glyph-name="zero" unicode="0" 
d="M90 664h664v-664h-664v664zM391 173l21 -50h86q63 0 98 26t35 76q0 38 -19 64t-57 38q26 15 43.5 37.5t17.5 54.5q0 46 -35.5 71t-97.5 25h-61l-5 26h-209v-368h183zM396 327l16 -42h76q31 0 41.5 -12t10.5 -28q0 -15 -10 -30.5t-37 -15.5h-66l-10 51h-128v77h107z
M289 403v62h112l11 -26h57q15 0 24.5 -4.5t15.5 -10.5t8 -13t2 -13q0 -16 -9.5 -30.5t-35.5 -14.5h-47l-10 50h-128z" />
    <glyph glyph-name="one" unicode="1" 
d="M90 664h664v-664h-664v664zM391 173l21 -50h86q63 0 98 26t35 76q0 38 -19 64t-57 38q26 15 43.5 37.5t17.5 54.5q0 46 -35.5 71t-97.5 25h-61l-5 26h-209v-368h183zM396 327l16 -42h76q31 0 41.5 -12t10.5 -28q0 -15 -10 -30.5t-37 -15.5h-66l-10 51h-128v77h107z
M289 403v62h112l11 -26h57q15 0 24.5 -4.5t15.5 -10.5t8 -13t2 -13q0 -16 -9.5 -30.5t-35.5 -14.5h-47l-10 50h-128z" />
    <glyph glyph-name="two" unicode="2" 
d="M90 664h664v-664h-664v664zM391 173l21 -50h86q63 0 98 26t35 76q0 38 -19 64t-57 38q26 15 43.5 37.5t17.5 54.5q0 46 -35.5 71t-97.5 25h-61l-5 26h-209v-368h183zM396 327l16 -42h76q31 0 41.5 -12t10.5 -28q0 -15 -10 -30.5t-37 -15.5h-66l-10 51h-128v77h107z
M289 403v62h112l11 -26h57q15 0 24.5 -4.5t15.5 -10.5t8 -13t2 -13q0 -16 -9.5 -30.5t-35.5 -14.5h-47l-10 50h-128z" />
    <glyph glyph-name="three" unicode="3" 
d="M90 664h664v-664h-664v664zM391 173l21 -50h86q63 0 98 26t35 76q0 38 -19 64t-57 38q26 15 43.5 37.5t17.5 54.5q0 46 -35.5 71t-97.5 25h-61l-5 26h-209v-368h183zM396 327l16 -42h76q31 0 41.5 -12t10.5 -28q0 -15 -10 -30.5t-37 -15.5h-66l-10 51h-128v77h107z
M289 403v62h112l11 -26h57q15 0 24.5 -4.5t15.5 -10.5t8 -13t2 -13q0 -16 -9.5 -30.5t-35.5 -14.5h-47l-10 50h-128z" />
    <glyph glyph-name="four" unicode="4" 
d="M90 664h664v-664h-664v664zM391 173l21 -50h86q63 0 98 26t35 76q0 38 -19 64t-57 38q26 15 43.5 37.5t17.5 54.5q0 46 -35.5 71t-97.5 25h-61l-5 26h-209v-368h183zM396 327l16 -42h76q31 0 41.5 -12t10.5 -28q0 -15 -10 -30.5t-37 -15.5h-66l-10 51h-128v77h107z
M289 403v62h112l11 -26h57q15 0 24.5 -4.5t15.5 -10.5t8 -13t2 -13q0 -16 -9.5 -30.5t-35.5 -14.5h-47l-10 50h-128z" />
    <glyph glyph-name="five" unicode="5" 
d="M90 664h664v-664h-664v664zM391 173l21 -50h86q63 0 98 26t35 76q0 38 -19 64t-57 38q26 15 43.5 37.5t17.5 54.5q0 46 -35.5 71t-97.5 25h-61l-5 26h-209v-368h183zM396 327l16 -42h76q31 0 41.5 -12t10.5 -28q0 -15 -10 -30.5t-37 -15.5h-66l-10 51h-128v77h107z
M289 403v62h112l11 -26h57q15 0 24.5 -4.5t15.5 -10.5t8 -13t2 -13q0 -16 -9.5 -30.5t-35.5 -14.5h-47l-10 50h-128z" />
    <glyph glyph-name="six" unicode="6" 
d="M90 664h664v-664h-664v664zM391 173l21 -50h86q63 0 98 26t35 76q0 38 -19 64t-57 38q26 15 43.5 37.5t17.5 54.5q0 46 -35.5 71t-97.5 25h-61l-5 26h-209v-368h183zM396 327l16 -42h76q31 0 41.5 -12t10.5 -28q0 -15 -10 -30.5t-37 -15.5h-66l-10 51h-128v77h107z
M289 403v62h112l11 -26h57q15 0 24.5 -4.5t15.5 -10.5t8 -13t2 -13q0 -16 -9.5 -30.5t-35.5 -14.5h-47l-10 50h-128z" />
    <glyph glyph-name="seven" unicode="7" 
d="M90 664h664v-664h-664v664zM391 173l21 -50h86q63 0 98 26t35 76q0 38 -19 64t-57 38q26 15 43.5 37.5t17.5 54.5q0 46 -35.5 71t-97.5 25h-61l-5 26h-209v-368h183zM396 327l16 -42h76q31 0 41.5 -12t10.5 -28q0 -15 -10 -30.5t-37 -15.5h-66l-10 51h-128v77h107z
M289 403v62h112l11 -26h57q15 0 24.5 -4.5t15.5 -10.5t8 -13t2 -13q0 -16 -9.5 -30.5t-35.5 -14.5h-47l-10 50h-128z" />
    <glyph glyph-name="eight" unicode="8" 
d="M90 664h664v-664h-664v664zM391 173l21 -50h86q63 0 98 26t35 76q0 38 -19 64t-57 38q26 15 43.5 37.5t17.5 54.5q0 46 -35.5 71t-97.5 25h-61l-5 26h-209v-368h183zM396 327l16 -42h76q31 0 41.5 -12t10.5 -28q0 -15 -10 -30.5t-37 -15.5h-66l-10 51h-128v77h107z
M289 403v62h112l11 -26h57q15 0 24.5 -4.5t15.5 -10.5t8 -13t2 -13q0 -16 -9.5 -30.5t-35.5 -14.5h-47l-10 50h-128z" />
    <glyph glyph-name="nine" unicode="9" 
d="M90 664h664v-664h-664v664zM391 173l21 -50h86q63 0 98 26t35 76q0 38 -19 64t-57 38q26 15 43.5 37.5t17.5 54.5q0 46 -35.5 71t-97.5 25h-61l-5 26h-209v-368h183zM396 327l16 -42h76q31 0 41.5 -12t10.5 -28q0 -15 -10 -30.5t-37 -15.5h-66l-10 51h-128v77h107z
M289 403v62h112l11 -26h57q15 0 24.5 -4.5t15.5 -10.5t8 -13t2 -13q0 -16 -9.5 -30.5t-35.5 -14.5h-47l-10 50h-128z" />
    <glyph glyph-name="colon" unicode=":" horiz-adv-x="252" 
d="M74 455q3 17 12 32t22 26.5t29.5 18t34.5 6.5q34 0 52 -22t18 -48q0 -6 -1 -13q-3 -18 -11.5 -33.5t-21.5 -27t-29.5 -18t-33.5 -6.5q-35 0 -53.5 22t-18.5 48q0 7 1 15zM14 75q2 17 11 32t22 26.5t29.5 18t34.5 6.5q35 0 53 -22t18 -48q0 -6 -1 -13q-3 -18 -12 -33.5
t-22 -27t-29 -18t-33 -6.5q-35 0 -53.5 22t-18.5 48q0 7 1 15z" />
    <glyph glyph-name="semicolon" unicode=";" horiz-adv-x="252" 
d="M74 455q3 17 12 32t22 26.5t29.5 18t34.5 6.5q34 0 52 -22t18 -48q0 -6 -1 -13q-3 -18 -11.5 -33.5t-21.5 -27t-29.5 -18t-33.5 -6.5q-35 0 -53.5 22t-18.5 48q0 7 1 15zM51 109h132l-96 -236h-104z" />
    <glyph glyph-name="less" unicode="&#x3c;" horiz-adv-x="502" 
d="M35 227v134l432 175v-127l-301 -115l301 -115v-127z" />
    <glyph glyph-name="equal" unicode="=" horiz-adv-x="449" 
d="M35 425h379v-108h-379v108zM35 234h379v-108h-379v108z" />
    <glyph glyph-name="greater" unicode="&#x3e;" horiz-adv-x="502" 
d="M35 52v127l301 115l-301 115v127l432 -175v-134z" />
    <glyph glyph-name="question" unicode="?" horiz-adv-x="546" 
d="M203 316l92 40q47 21 66.5 42.5t25.5 54.5q2 10 2 19q0 62 -72 62q-36 0 -61 -22t-36 -61h-154q47 229 281 229q112 0 157.5 -46.5t45.5 -113.5q0 -21 -4 -45q-12 -79 -72 -138.5t-177 -108.5l-116 -50zM164 70q3 16 11 30.5t20.5 25t28 16.5t32.5 6q32 0 49.5 -20.5
t17.5 -44.5q0 -6 -1 -13q-5 -34 -32 -57t-59 -23q-34 0 -51 20.5t-17 45.5q0 7 1 14z" />
    <glyph glyph-name="at" unicode="@" horiz-adv-x="878" 
d="M41 292q15 91 55.5 165.5t102 127.5t140.5 82t170 29t161 -29t114.5 -82t58 -110.5t13.5 -102.5q0 -38 -7 -80q-14 -91 -55 -165.5t-102.5 -127.5t-140.5 -82t-170 -29t-161 29t-114.5 82t-57.5 110.5t-13 103.5q0 38 6 79zM150 292q-4 -30 -4 -57q0 -34 9.5 -76.5
t42 -81t83.5 -59.5t118 -21t124.5 21t102 59.5t74.5 93t40 121.5q5 31 5 60q0 33 -9.5 74.5t-42 80t-83.5 59.5t-118 21t-124.5 -21t-102.5 -59.5t-74.5 -93t-40.5 -121.5zM595 102h-112l8 49q-18 -23 -48.5 -39t-70.5 -16q-42 0 -73 15.5t-50 41.5t-24.5 53.5t-5.5 47.5
q0 18 3 36q6 41 24.5 76.5t46.5 62t63.5 42t77.5 15.5q40 0 65 -16.5t36 -39.5l8 49h112zM517 315q-2 29 -21.5 48t-54.5 19q-40 0 -68.5 -27t-34.5 -65q-2 -10 -2 -19q0 -26 18 -48.5t58 -22.5q35 0 60.5 18t36.5 46z" />
    <glyph glyph-name="A" unicode="A" horiz-adv-x="685" 
d="M314 670h189l140 -670h-157l-25 118h-280l-62 -118h-157zM437 240l-54 263l-139 -263h193z" />
    <glyph glyph-name="B" unicode="B" horiz-adv-x="669" 
d="M416 670q118 0 172.5 -45t54.5 -110q0 -15 -3 -32q-8 -51 -38 -86.5t-79 -55.5q55 -19 78 -52t23 -71q0 -15 -3 -31q-7 -43 -30 -77.5t-59.5 -59t-85.5 -37.5t-108 -13h-308l106 670h280zM362 385q46 0 76.5 19t35.5 56q1 7 1 13q0 27 -22 43t-68 16h-117l-23 -147h117z
M346 138q51 0 81.5 20t36.5 58q1 7 1 14q0 60 -98 60h-137l-24 -152h140z" />
    <glyph glyph-name="C" unicode="C" horiz-adv-x="752" 
d="M48 335q11 71 48.5 134t92.5 110t122.5 74t139.5 27q65 0 118.5 -20t92.5 -56t61.5 -86t23.5 -110h-171q-9 54 -49 86t-100 32q-39 0 -75.5 -15t-65.5 -41t-49.5 -60.5t-26.5 -73.5q-2 -16 -2 -31q0 -23 7 -51t28 -54t53 -41t71 -15q59 0 109.5 32t76.5 86h171
q-21 -60 -59 -110t-88.5 -86t-110.5 -56t-125 -20q-72 0 -131 27t-98.5 74t-53.5 98t-14 92q0 27 4 54z" />
    <glyph glyph-name="D" unicode="D" horiz-adv-x="715" 
d="M30 0l106 670h271q74 0 132.5 -25t96.5 -69.5t50 -92.5t12 -86q0 -30 -5 -62q-12 -73 -46.5 -135t-86.5 -106t-118.5 -69t-140.5 -25h-271zM208 150h117q39 0 74 13.5t62 37.5t45 58t25 76q3 20 3 39t-5.5 45t-25 50t-50.5 37.5t-70 13.5h-117z" />
    <glyph glyph-name="E" unicode="E" horiz-adv-x="604" 
d="M136 670h492l-22 -137h-338l-21 -133h279l-20 -132h-279l-21 -131h338l-22 -137h-492z" />
    <glyph glyph-name="F" unicode="F" horiz-adv-x="584" 
d="M136 670h486l-22 -134h-331l-24 -148h274l-21 -132h-274l-40 -256h-154z" />
    <glyph glyph-name="G" unicode="G" horiz-adv-x="762" 
d="M312 -10q-70 0 -124.5 25t-90 70t-45.5 93.5t-10 84.5q0 35 6 72q11 71 47 134t89 110t120.5 74t141.5 27q61 0 111 -15.5t86.5 -45t59 -71t28.5 -94.5h-185q-11 37 -45 57t-82 20q-40 0 -75.5 -14.5t-62.5 -40.5t-45.5 -61t-24.5 -76q-4 -24 -4 -45q0 -62 39 -108.5
t133 -46.5q53 0 95 18t68 51l9 54h-151l17 111h305l-59 -373h-154l10 63q-41 -35 -93 -54t-114 -19z" />
    <glyph glyph-name="H" unicode="H" horiz-adv-x="733" 
d="M136 670h154l-45 -284h285l45 284h154l-106 -670h-154l39 246h-285l-39 -246h-154z" />
    <glyph glyph-name="I" unicode="I" horiz-adv-x="294" 
d="M136 670h154l-106 -670h-154z" />
    <glyph glyph-name="J" unicode="J" horiz-adv-x="415" 
d="M257 670h154l-77 -487q-18 -116 -90 -155t-149 -39q-49 0 -107 12l24 148q44 -9 75 -9t52 10.5t32.5 32t17.5 55.5z" />
    <glyph glyph-name="K" unicode="K" horiz-adv-x="671" 
d="M633 0h-197l-155 253h-57l-40 -253h-154l106 670h154l-44 -277h53l229 277h188l-285 -346z" />
    <glyph glyph-name="L" unicode="L" horiz-adv-x="532" 
d="M136 670h154l-84 -530h287l-22 -140h-441z" />
    <glyph glyph-name="M" unicode="M" horiz-adv-x="882" 
d="M136 670h218l95 -367l211 367h218l-106 -670h-154l76 478l-199 -350h-147l-88 350l-76 -478h-154z" />
    <glyph glyph-name="N" unicode="N" horiz-adv-x="733" 
d="M136 670h194l175 -445l70 445h154l-106 -670h-193l-175 446l-71 -446h-154z" />
    <glyph glyph-name="O" unicode="O" horiz-adv-x="766" 
d="M48 335q11 71 48.5 134t92.5 110t122.5 74t139.5 27t131 -27t99 -74t53.5 -97.5t13.5 -91.5q0 -27 -4 -55q-11 -72 -48.5 -134.5t-92 -109.5t-122.5 -74t-140 -27t-131 27t-98.5 74t-53.5 97.5t-14 92.5q0 26 4 54zM210 336q-2 -16 -2 -31q0 -23 7 -51t28 -54t52.5 -41
t70.5 -15t75 15t65.5 41t49.5 61t26 75q2 16 2 30q0 23 -7 50.5t-28.5 53.5t-53 41t-69.5 15t-74.5 -15t-65.5 -41t-49.5 -60.5t-26.5 -73.5z" />
    <glyph glyph-name="P" unicode="P" horiz-adv-x="654" 
d="M415 670q64 0 112.5 -17.5t79 -50t40.5 -69t10 -66.5q0 -22 -4 -46q-9 -56 -35.5 -101t-67.5 -76.5t-95 -48.5t-118 -17h-125l-28 -178h-154l106 670h279zM350 319q59 0 95.5 26t44.5 74q1 10 1 18q0 35 -25 59t-85 24h-115l-32 -201h116z" />
    <glyph glyph-name="Q" unicode="Q" horiz-adv-x="766" 
d="M500 -83l-54 89q-26 -8 -52.5 -12t-52.5 -4q-72 0 -131 27t-98.5 74t-53.5 97.5t-14 92.5q0 26 4 54q11 71 48.5 134t92.5 110t122.5 74t139.5 27t131 -27t99 -74t53.5 -97.5t13.5 -91.5q0 -27 -4 -55q-13 -79 -56 -146t-106 -115l95 -157h-177zM210 336q-2 -16 -2 -31
q0 -23 7 -51t28 -54t52.5 -41t70.5 -15t75 15t65.5 41t49.5 61t26 75q2 16 2 30q0 23 -7 50.5t-28.5 53.5t-53 41t-69.5 15t-74.5 -15t-65.5 -41t-49.5 -60.5t-26.5 -73.5z" />
    <glyph glyph-name="R" unicode="R" horiz-adv-x="675" 
d="M419 670q132 0 189 -51.5t57 -126.5q0 -21 -4 -43q-12 -77 -58 -128t-119 -75l108 -246h-181l-96 226h-95l-36 -226h-154l106 670h283zM364 347q57 0 91.5 23.5t41.5 64.5q1 7 1 14q0 31 -24.5 52.5t-81.5 21.5h-125l-28 -176h125z" />
    <glyph glyph-name="S" unicode="S" horiz-adv-x="645" 
d="M92 472q16 100 93 154t204 54q131 0 183 -52.5t52 -127.5q0 -19 -3 -40h-158q2 10 2 18q0 30 -21 52t-81 22q-49 0 -79 -18.5t-35 -52.5q-1 -5 -1 -11q0 -14 7.5 -26.5t24 -22.5t40 -16.5t50.5 -12.5q41 -9 84 -19.5t77.5 -31t50 -50t15.5 -62.5q0 -17 -3 -36
q-15 -93 -91.5 -148t-216.5 -55q-143 0 -198.5 53t-55.5 126q0 19 3 40h158v-8q0 -84 115 -84q54 0 86 18t37 50q1 6 1 11q0 15 -8 27t-26.5 21t-43.5 15t-54 11q-40 8 -81 18t-72.5 31.5t-44.5 51t-13 62.5q0 18 3 39z" />
    <glyph glyph-name="T" unicode="T" horiz-adv-x="595" 
d="M265 536h-213l21 134h581l-21 -134h-214l-85 -536h-154z" />
    <glyph glyph-name="U" unicode="U" horiz-adv-x="702" 
d="M310 -10q-140 0 -196.5 62.5t-56.5 150.5q0 29 5 62l64 405h154l-62 -392q-3 -18 -3 -33q0 -44 27 -76.5t92 -32.5q64 0 105.5 37.5t52.5 104.5l62 392h154l-64 -405q-21 -133 -107.5 -204t-226.5 -71z" />
    <glyph glyph-name="V" unicode="V" horiz-adv-x="697" 
d="M240 670l98 -487l250 487h167l-352 -670h-189l-140 670h166z" />
    <glyph glyph-name="W" unicode="W" horiz-adv-x="1015" 
d="M240 670l59 -449l200 449h149l58 -449l202 449h165l-305 -670h-168l-63 442l-202 -442h-168l-93 670h166z" />
    <glyph glyph-name="X" unicode="X" horiz-adv-x="684" 
d="M449 338l187 -338h-187l-115 204l-179 -204h-187l293 338l-183 332h188l110 -198l174 198h188z" />
    <glyph glyph-name="Y" unicode="Y" horiz-adv-x="661" 
d="M249 670l103 -287l193 287h181l-324 -457l-34 -213h-154l34 213l-180 457h181z" />
    <glyph glyph-name="Z" unicode="Z" horiz-adv-x="594" 
d="M214 134h319l-21 -134h-510l21 134l384 402h-320l21 134h510l-21 -134z" />
    <glyph glyph-name="bracketleft" unicode="[" horiz-adv-x="360" 
d="M150 760h255l-17 -111h-113l-108 -678h113l-17 -111h-255z" />
    <glyph glyph-name="backslash" unicode="\" horiz-adv-x="420" 
d="M258 -40l-186 750h116l186 -750h-116z" />
    <glyph glyph-name="bracketright" unicode="]" horiz-adv-x="360" 
d="M-27 -140l17 111h113l108 678h-113l17 111h255l-142 -900h-255z" />
    <glyph glyph-name="asciicircum" unicode="^" horiz-adv-x="517" 
d="M35 278l155 392h137l155 -392h-127l-96 260l-97 -260h-127z" />
    <glyph glyph-name="underscore" unicode="_" horiz-adv-x="456" 
d="M-9 -24h386l-17 -105h-386z" />
    <glyph glyph-name="grave" unicode="`" horiz-adv-x="288" 
d="M82 678l69 96l180 -124l-57 -79z" />
    <glyph glyph-name="a" unicode="a" horiz-adv-x="637" 
d="M541 0h-149l10 62q-29 -33 -68 -52t-95 -19t-99 20.5t-70.5 56.5t-35.5 74.5t-8 67.5q0 26 4 53q9 60 35.5 110t65.5 87t89 57.5t105 20.5q56 0 89.5 -19.5t51.5 -53.5l10 63h149zM437 282v6q0 42 -28 72.5t-80 30.5q-29 0 -53.5 -10t-43.5 -27.5t-31.5 -41t-16.5 -49.5
q-2 -11 -2 -22q0 -13 4 -31t17.5 -35t35.5 -27t50 -10q52 0 90.5 31t51.5 76z" />
    <glyph glyph-name="b" unicode="b" horiz-adv-x="636" 
d="M610 263q-9 -59 -35.5 -109t-65.5 -86t-88 -56.5t-105 -20.5t-90 19t-51 52l-10 -62h-149l114 720h149l-41 -254q29 33 68.5 52.5t94.5 19.5q56 0 99 -20.5t70.5 -57.5t35.5 -75.5t8 -68.5q0 -25 -4 -53zM210 285l-7 -42v-6q0 -41 28.5 -70t79.5 -29q29 0 53.5 10
t43.5 27t31.5 40t16.5 48q2 12 2 23q0 13 -4 31.5t-17.5 36t-35 27.5t-50.5 10q-51 0 -89 -30.5t-52 -75.5z" />
    <glyph glyph-name="c" unicode="c" horiz-adv-x="603" 
d="M29 264q9 59 38 109t72 87t97 57.5t114 20.5q54 0 98 -16.5t74.5 -46.5t46 -69.5t15.5 -82.5v-11h-158q-5 36 -30.5 58t-67.5 22q-28 0 -52.5 -10t-43.5 -27.5t-32 -41t-17 -50.5q-2 -11 -2 -21q0 -14 4.5 -32.5t18 -35.5t34.5 -27.5t49 -10.5q42 0 74.5 22t49.5 55h157
q-15 -49 -44 -90t-69.5 -70t-89 -45.5t-102.5 -16.5q-60 0 -107.5 20.5t-78.5 57t-41.5 76.5t-10.5 72q0 23 4 47z" />
    <glyph glyph-name="d" unicode="d" horiz-adv-x="636" 
d="M30 263q9 60 35.5 110t65.5 87t89 57.5t105 20.5t89 -19.5t51 -52.5l40 254h149l-114 -720h-149l10 62q-28 -33 -67.5 -52t-94.5 -19q-56 0 -99 20.5t-70.5 56.5t-35.5 74.5t-8 67.5q0 26 4 53zM436 285v6q0 43 -29 71.5t-78 28.5q-29 0 -53.5 -10t-43.5 -27.5t-31.5 -41
t-16.5 -49.5q-2 -11 -2 -22q0 -13 4 -31t17.5 -35t35.5 -27t50 -10q26 0 48.5 8t41 22.5t31.5 33.5t19 41z" />
    <glyph glyph-name="e" unicode="e" horiz-adv-x="606" 
d="M178 231q0 -47 28.5 -76.5t80.5 -29.5q32 0 62 16t47 39h161q-18 -43 -47 -78t-67 -59.5t-83.5 -38t-96.5 -13.5q-60 0 -107 20.5t-78.5 57t-41.5 76t-10 71.5q0 23 4 48q9 59 37.5 109.5t70.5 87t95.5 57t113.5 20.5q56 0 101 -16.5t76.5 -47t46 -69.5t14.5 -81v-16
q-2 -23 -4 -40t-6 -37h-397zM428 313q-1 40 -28 65.5t-72 25.5q-47 0 -81 -25t-51 -66h232z" />
    <glyph glyph-name="f" unicode="f" horiz-adv-x="408" 
d="M485 741l-21 -130h-101q-56 0 -68 -70l-3 -13h147l-19 -120h-147l-64 -408h-149l65 408h-83l19 120h83l3 18q16 97 68 146t140 49h130z" />
    <glyph glyph-name="g" unicode="g" horiz-adv-x="637" 
d="M546 33q-19 -121 -97 -183t-211 -62q-63 0 -106 13.5t-69.5 38t-35 53t-8.5 56.5q0 11 1 23h149q2 -32 27 -47.5t64 -15.5q117 0 137 124l8 49q-29 -32 -68 -50t-95 -18t-99 19.5t-71 54.5t-36 72t-8 65q0 24 4 50q9 57 35 105t65 83t88.5 55t104.5 20q56 0 89.5 -18.5
t51.5 -51.5l10 60h149zM185 271q-2 -11 -2 -21q0 -13 4.5 -30.5t18 -34.5t35 -27t49.5 -10q52 0 91 31.5t53 82.5l4 26v6q0 47 -29 75t-79 28q-29 0 -53.5 -10t-43.5 -27t-31.5 -40t-16.5 -49z" />
    <glyph glyph-name="h" unicode="h" horiz-adv-x="612" 
d="M130 720h149l-42 -263q36 37 82.5 59t98.5 22q42 0 73.5 -14.5t51.5 -40t25.5 -52t5.5 -46.5q0 -19 -4 -41l-54 -344h-151l46 292q2 13 2 24q0 28 -17.5 51t-56.5 23q-25 0 -47 -10.5t-39.5 -28t-29 -40t-16.5 -47.5l-42 -264h-149z" />
    <glyph glyph-name="i" unicode="i" horiz-adv-x="261" 
d="M110 666q6 34 34 58t65 24q36 0 54.5 -21.5t18.5 -45.5q0 -7 -1 -15q-3 -18 -11.5 -33t-22 -26t-30 -17.5t-34.5 -6.5q-37 0 -55.5 21.5t-18.5 48.5q0 6 1 13zM100 528h149l-84 -528h-149z" />
    <glyph glyph-name="j" unicode="j" horiz-adv-x="301" 
d="M147 666q6 34 34 58t65 24q36 0 54.5 -21.5t18.5 -45.5q0 -7 -1 -15q-3 -18 -11.5 -33t-22 -26t-30 -17.5t-34.5 -6.5q-37 0 -55.5 21.5t-18.5 48.5q0 6 1 13zM195 -35q-16 -102 -72.5 -136.5t-129.5 -34.5q-36 0 -79 7l22 133q25 -4 44 -4q5 0 18 1t25.5 9.5t19 24.5
t10.5 42l83 521h149z" />
    <glyph glyph-name="k" unicode="k" horiz-adv-x="561" 
d="M130 720h149l-60 -382h37l149 190h181l-204 -260l144 -268h-192l-98 198h-40l-31 -198h-149z" />
    <glyph glyph-name="l" unicode="l" horiz-adv-x="261" 
d="M130 720h149l-114 -720h-149z" />
    <glyph glyph-name="m" unicode="m" horiz-adv-x="912" 
d="M99 528h149l-11 -72q33 38 75.5 60t92.5 22q54 0 88.5 -27t47.5 -73q35 46 83.5 73t105.5 27q39 0 68.5 -14.5t48 -40t23.5 -52t5 -44.5q0 -21 -4 -43l-55 -344h-149l46 292q2 13 2 24q0 29 -15 51.5t-50 22.5q-21 0 -40.5 -10.5t-35.5 -28t-26.5 -40t-15.5 -47.5
l-42 -264h-149l46 292q2 14 2 26q0 27 -15 49.5t-49 22.5q-22 0 -41.5 -10.5t-35 -28t-26 -40t-15.5 -47.5l-42 -264h-149z" />
    <glyph glyph-name="n" unicode="n" horiz-adv-x="612" 
d="M100 528h149l-13 -77q35 41 81.5 64t100.5 23q42 0 73.5 -14.5t51.5 -40t25.5 -52t5.5 -46.5q0 -19 -4 -41l-54 -344h-149l46 292q2 12 2 23q0 29 -18.5 52t-57.5 23q-25 0 -47 -10.5t-39.5 -28t-29 -40t-16.5 -47.5l-42 -264h-149z" />
    <glyph glyph-name="o" unicode="o" horiz-adv-x="610" 
d="M30 264q9 59 38 109.5t71.5 87t96 57t113.5 20.5t107.5 -20.5t79 -57.5t42 -77t10.5 -72q0 -23 -4 -47q-9 -59 -38 -109t-72 -86.5t-97 -57t-114 -20.5t-107 20.5t-78.5 57t-41.5 76t-10 71.5q0 23 4 48zM184 263q-2 -11 -2 -21q0 -14 4.5 -32t18 -35t35 -27t48.5 -10
t51 10t42.5 27t31 40t16.5 48q2 12 2 23q0 13 -4 31.5t-17 36t-34 27.5t-48 10q-28 0 -52.5 -10t-43.5 -27.5t-31.5 -41t-16.5 -49.5z" />
    <glyph glyph-name="p" unicode="p" horiz-adv-x="637" 
d="M-15 -195l114 723h149l-10 -63q29 34 68.5 53.5t95.5 19.5t99 -20.5t70.5 -57.5t35.5 -75.5t8 -68.5q0 -25 -4 -53q-10 -59 -36 -109t-65 -86t-88.5 -56.5t-105.5 -20.5t-90 19t-51 52l-41 -257h-149zM210 282l-6 -37v-6q0 -41 28 -71t79 -30q29 0 53.5 10t43.5 27
t31.5 40t16.5 48q2 12 2 23q0 13 -4 31.5t-17.5 36t-35 27.5t-50.5 10q-25 0 -48 -8.5t-42 -23t-32 -34.5t-19 -43z" />
    <glyph glyph-name="q" unicode="q" horiz-adv-x="637" 
d="M510 -195h-149l41 257q-29 -33 -68 -52t-95 -19t-99 20.5t-71 56.5t-36 74t-8 66q0 26 5 55q9 60 35.5 110t66 87t89 57.5t105.5 20.5q55 0 88.5 -19.5t50.5 -53.5l10 63h149zM437 282v6q0 42 -28.5 72.5t-79.5 30.5q-29 0 -54 -10t-44 -27.5t-31.5 -41t-16.5 -49.5
q-2 -11 -2 -21q0 -14 4.5 -32t18 -35t35.5 -27t50 -10q52 0 90.5 31t50.5 76z" />
    <glyph glyph-name="r" unicode="r" horiz-adv-x="415" 
d="M100 528h149l-15 -95q42 53 96 79t112 26l-25 -157h-7q-31 0 -64.5 -8.5t-62.5 -27.5t-50.5 -46.5t-30.5 -64.5l-37 -234h-149z" />
    <glyph glyph-name="s" unicode="s" horiz-adv-x="538" 
d="M66 371q13 80 77 123.5t169 43.5q109 0 154 -42t45 -103q0 -13 -2 -28h-151q1 6 1 11q0 21 -15 34.5t-49 13.5q-72 0 -80 -47q-1 -4 -1 -8q0 -19 19.5 -30.5t52.5 -19t71.5 -14.5t70.5 -23t47 -40.5t15 -55.5q0 -13 -2 -29q-12 -76 -76.5 -120.5t-180.5 -44.5
q-120 0 -166.5 42t-46.5 100q0 15 3 31h150v-5q0 -55 78 -55q79 0 87 47q1 4 1 7q0 13 -10.5 22.5t-31 16t-47 11t-54 10.5t-53.5 15.5t-45 27t-25.5 38t-6.5 40.5q0 14 2 31z" />
    <glyph glyph-name="t" unicode="t" horiz-adv-x="413" 
d="M326 678l-23 -150h120l-19 -120h-120l-34 -211q-2 -10 -2 -18q0 -13 5 -25t19 -18.5t26.5 -7t15.5 -0.5q20 0 46 4l-21 -135q-49 -6 -89 -6q-15 0 -47 2t-62.5 21t-40 47t-9.5 54q0 20 4 44l40 249h-85l19 120h85l23 150h149z" />
    <glyph glyph-name="u" unicode="u" horiz-adv-x="612" 
d="M516 0h-149l12 76q-35 -40 -81.5 -63t-100.5 -23q-42 0 -73.5 14.5t-51 40t-25 52.5t-5.5 47q0 19 3 39l55 345h149l-47 -292q-2 -11 -2 -21q0 -31 19 -54t58 -23q25 0 47 10.5t39 28t29 40t17 47.5l42 264h149z" />
    <glyph glyph-name="v" unicode="v" horiz-adv-x="580" 
d="M167 0l-113 528h160l64 -348l174 348h161l-281 -528h-165z" />
    <glyph glyph-name="w" unicode="w" horiz-adv-x="853" 
d="M144 0l-90 528h161l43 -326l145 326h135l41 -326l148 326h160l-258 -528h-143l-48 323l-151 -323h-143z" />
    <glyph glyph-name="x" unicode="x" horiz-adv-x="564" 
d="M340 0l-75 146l-122 -146h-172l225 266l-139 262h172l74 -143l118 143h173l-223 -262l141 -266h-172z" />
    <glyph glyph-name="y" unicode="y" horiz-adv-x="568" 
d="M66 -195l106 201l-118 522h158l63 -321l169 321h157l-392 -723h-143z" />
    <glyph glyph-name="z" unicode="z" horiz-adv-x="490" 
d="M68 402l20 126h405l-20 -126l-276 -276h240l-20 -126h-424l20 126l280 276h-225z" />
    <glyph glyph-name="braceleft" unicode="{" horiz-adv-x="396" 
d="M51 354q8 0 20.5 1t24.5 5t21.5 12t11.5 23l39 248q4 25 13 46.5t26 37t43 24.5t64 9h127l-17 -111h-70q-23 0 -34.5 -9t-15.5 -33l-33 -208q-6 -41 -27 -61t-47 -28q23 -9 35.5 -26t12.5 -42q0 -10 -2 -22l-33 -208q-1 -8 -1 -14q0 -13 7 -20.5t30 -7.5h70l-17 -111
h-127q-38 0 -61.5 9t-35.5 24.5t-13.5 30.5t-1.5 24q0 14 2 29l39 248v7q0 10 -5.5 17t-16 11t-22.5 5t-20 1z" />
    <glyph glyph-name="bar" unicode="|" horiz-adv-x="282" 
d="M70 760h142v-900h-142v900z" />
    <glyph glyph-name="braceright" unicode="}" horiz-adv-x="396" 
d="M377 354l-14 -89q-8 0 -20.5 -1t-24.5 -5t-21.5 -12t-11.5 -23l-39 -248q-4 -25 -13 -46.5t-26 -37t-43 -24.5t-64 -9h-127l17 111h70q23 0 34.5 9t15.5 33l33 208q6 41 27 61t47 29q-23 8 -35.5 25t-12.5 42q0 10 2 22l33 208q1 8 1 14q0 13 -7 20.5t-30 7.5h-70l17 111
h127q38 0 61.5 -9t35.5 -24.5t13.5 -30.5t1.5 -24q0 -14 -2 -29l-39 -248v-7q0 -10 5.5 -17t16 -11t22.5 -5t20 -1z" />
    <glyph glyph-name="asciitilde" unicode="~" horiz-adv-x="544" 
d="M280 328q21 -9 42.5 -13t38.5 -4q8 0 25.5 1.5t44 13t49.5 35.5l29 -101q-58 -48 -97 -52.5t-53 -4.5q-48 0 -95 20q-21 9 -42 13t-39 4q-8 0 -25.5 -1.5t-44 -13t-49.5 -35.5l-29 101q58 48 97 52.5t53 4.5q48 0 95 -20z" />
    <glyph glyph-name="exclamdown" unicode="&#xa1;" horiz-adv-x="285" 
d="M87 399q5 34 32 57t60 23q32 0 49.5 -20.5t17.5 -46.5q0 -6 -1 -13q-3 -16 -11 -30.5t-20.5 -25t-27.5 -16.5t-31 -6q-34 0 -51.5 20.5t-17.5 44.5q0 6 1 13zM213 271l-62 -472h-161l88 472h135z" />
    <glyph glyph-name="cent" unicode="&#xa2;" horiz-adv-x="617" 
d="M38 264q8 49 28.5 91.5t52 76.5t71.5 58.5t86 36.5l23 143h145l-23 -140q81 -18 126 -75t45 -137v-7h-159q-5 35 -31 57.5t-67 22.5q-28 0 -52 -10t-43 -27.5t-31.5 -41t-16.5 -49.5q-2 -11 -2 -21q0 -14 4.5 -32t18 -35t34.5 -27t48 -10q41 0 73.5 21.5t48.5 54.5h159
q-25 -84 -89 -141t-150 -75l-23 -149h-145l24 152q-42 12 -74.5 36t-53 58.5t-26 66t-5.5 53.5q0 24 4 49z" />
    <glyph glyph-name="sterling" unicode="&#xa3;" horiz-adv-x="632" 
d="M2 135h79l18 116h-79l19 120h79l16 100q8 46 30.5 84.5t57.5 66t81 43t100 15.5q56 0 96.5 -17t65 -47.5t31 -64t6.5 -60.5q0 -23 -3 -47h-156q2 12 2 23q0 67 -65 67q-38 0 -63.5 -22t-31.5 -61l-13 -80h170l-19 -120h-170l-18 -116h329l-22 -135h-562z" />
    <glyph glyph-name="currency" unicode="&#xa4;" horiz-adv-x="569" 
d="M82 298q0 49 19 90l-66 66l94 94l66 -66q41 19 90 19q48 0 89 -19l66 66l94 -94l-66 -66q8 -20 13 -42t5 -48q0 -25 -5 -47t-13 -42l66 -66l-94 -94l-66 66q-41 -19 -89 -19q-49 0 -90 19l-66 -66l-94 94l66 66q-19 41 -19 89zM205 298q0 -35 22 -57t58 -22q35 0 57 22
t22 57q0 36 -22 58t-57 22q-36 0 -58 -22t-22 -58z" />
    <glyph glyph-name="yen" unicode="&#xa5;" horiz-adv-x="685" 
d="M260 670l103 -287l194 287h180l-278 -393h91l-12 -75h-127l-8 -52h127l-12 -75h-127l-11 -75h-154l11 75h-126l12 75h126l8 52h-126l12 75h91l-154 393h180z" />
    <glyph glyph-name="brokenbar" unicode="&#xa6;" horiz-adv-x="282" 
d="M70 760h142v-349h-142v349zM70 209h142v-349h-142v349z" />
    <glyph glyph-name="section" unicode="&#xa7;" horiz-adv-x="545" 
d="M88 507q13 82 78.5 127.5t172.5 45.5q112 0 156 -44t44 -108q0 -15 -2 -32h-135q1 7 1 14q0 24 -17 43t-68 19q-42 0 -66.5 -15t-29.5 -44q-1 -5 -1 -10q0 -11 6 -21t20.5 -18t34 -13.5t41.5 -10.5q34 -7 71 -16t66 -25.5t43 -40t14 -50.5q0 -13 -3 -28q-12 -83 -91 -117
q29 -18 42.5 -42.5t13.5 -52.5q0 -14 -3 -30q-12 -78 -76.5 -124t-183.5 -46q-121 0 -168.5 44.5t-47.5 105.5q0 16 3 34h135v-6q0 -69 96 -69q46 0 72.5 14t31.5 40q1 5 1 9q0 12 -7 22.5t-23 18t-37 12t-45 9.5q-33 6 -67.5 16t-61.5 28.5t-38.5 42.5t-11.5 51q0 13 2 28
q6 39 26.5 66.5t53.5 46.5q-25 18 -35 42t-10 49q0 16 3 35zM263 211h11q14 0 30 2t31.5 8.5t26 17.5t13.5 27q1 5 1 9q0 13 -8.5 23.5t-24.5 18t-36 12t-39 8.5q-74 -6 -83 -58q-1 -4 -1 -9q0 -23 21.5 -36.5t57.5 -22.5z" />
    <glyph glyph-name="dieresis" unicode="&#xa8;" horiz-adv-x="310" 
d="M87 669q4 26 23.5 43t45.5 17t39 -15t13 -34q0 -5 -1 -11q-4 -25 -23.5 -42t-45.5 -17t-39 15t-13 34q0 5 1 10zM236 669q4 26 23.5 43t45.5 17t38.5 -15t12.5 -34q0 -5 -1 -11q-4 -25 -23 -42t-45 -17t-39 15t-13 34q0 5 1 10z" />
    <glyph glyph-name="copyright" unicode="&#xa9;" horiz-adv-x="878" 
d="M35 292q0 91 29 165.5t82 127.5t127.5 82t165.5 29t165.5 -29t127.5 -82t82 -127.5t29 -165.5t-29 -165.5t-82 -127.5t-127.5 -82t-165.5 -29t-165.5 29t-127.5 82t-82 127.5t-29 165.5zM144 292q0 -67 21 -121.5t59.5 -93t93 -59.5t121.5 -21t121.5 21t93 59.5t59.5 93
t21 121.5t-21 121.5t-59.5 93t-93 59.5t-121.5 21t-121.5 -21t-93 -59.5t-59.5 -93t-21 -121.5zM221 293q0 48 16.5 87.5t45.5 68.5t69 45t88 16q44 0 81 -13.5t65.5 -37.5t46.5 -57.5t22 -73.5h-131q-8 26 -30 43t-53 17q-41 0 -66 -28t-25 -67q0 -19 7 -36t19 -29.5
t28.5 -20t36.5 -7.5q30 0 52.5 16t30.5 42h131q-5 -40 -23 -73t-46.5 -57t-65.5 -37.5t-80 -13.5q-48 0 -88 16t-69 45t-45.5 68.5t-16.5 86.5z" />
    <glyph glyph-name="ordfeminine" unicode="&#xaa;" horiz-adv-x="503" 
d="M455 278h-129l6 40q-19 -23 -45.5 -35t-63.5 -12q-41 0 -72.5 15t-51.5 42t-25.5 55t-5.5 49q0 20 3 42q7 45 26.5 82t48 64t65 42t77.5 15q36 0 59 -12.5t34 -34.5l6 40h130zM358 484v6q0 25 -17.5 42.5t-48.5 17.5q-35 0 -59 -22.5t-29 -54.5q-1 -7 -1 -14
q0 -23 15.5 -42t49.5 -19q32 0 56 19t31 48z" />
    <glyph glyph-name="guillemotleft" unicode="&#xab;" horiz-adv-x="555" 
d="M31 229l20 123l253 135l-21 -127l-138 -70l116 -69l-20 -127zM285 229l19 123l253 135l-20 -127l-139 -70l117 -69l-20 -127z" />
    <glyph glyph-name="logicalnot" unicode="&#xac;" horiz-adv-x="524" 
d="M54 370h454l-41 -258h-121l22 138h-334z" />
    <glyph glyph-name="registered" unicode="&#xae;" horiz-adv-x="878" 
d="M35 292q0 91 29 165.5t82 127.5t127.5 82t165.5 29t165.5 -29t127.5 -82t82 -127.5t29 -165.5t-29 -165.5t-82 -127.5t-127.5 -82t-165.5 -29t-165.5 29t-127.5 82t-82 127.5t-29 165.5zM139 292q0 -68 21.5 -123.5t60.5 -94.5t94.5 -60.5t123.5 -21.5t123.5 21.5
t94.5 60.5t60.5 94.5t21.5 123.5t-21.5 123.5t-60.5 94.5t-94.5 60.5t-123.5 21.5t-123.5 -21.5t-94.5 -60.5t-60.5 -94.5t-21.5 -123.5zM452 512q90 0 137 -37.5t47 -108.5q0 -50 -23 -83t-66 -50l92 -156h-137l-81 141h-42v-141h-117v435h190zM379 308h71q63 0 63 46
t-63 46h-71v-92z" />
    <glyph glyph-name="macron" unicode="&#xaf;" horiz-adv-x="322" 
d="M108 711h252l-16 -96h-252z" />
    <glyph glyph-name="degree" unicode="&#xb0;" horiz-adv-x="413" 
d="M35 510q0 35 13.5 66t36.5 54t54.5 36.5t67.5 13.5t67 -13.5t54 -36.5t36.5 -54t13.5 -66q0 -36 -13.5 -67.5t-36.5 -54.5t-54.5 -36.5t-66.5 -13.5q-36 0 -67 13.5t-54.5 36.5t-37 54.5t-13.5 67.5zM148 510q0 -25 17 -42.5t42 -17.5q24 0 41 17t17 43q0 23 -17 41
t-41 18q-25 0 -42 -18t-17 -41z" />
    <glyph glyph-name="plusminus" unicode="&#xb1;" horiz-adv-x="467" 
d="M35 407h139v121h120v-121h138v-120h-138v-120h-120v120h-139v120zM35 120h397v-120h-397v120z" />
    <glyph glyph-name="twosuperior" unicode="&#xb2;" horiz-adv-x="389" 
d="M68 448q42 23 81 45.5t70 44t50.5 42t22.5 39.5v6q0 9 -5.5 18.5t-27.5 9.5q-24 0 -35 -14.5t-15 -34.5h-118q14 77 58 116.5t126 39.5q76 0 108 -30t32 -73q0 -10 -2 -22q-9 -54 -49 -97.5t-114 -89.5h134l-15 -96h-316z" />
    <glyph glyph-name="threesuperior" unicode="&#xb3;" horiz-adv-x="410" 
d="M294 486v5q0 28 -49 28h-60l11 71h65q41 0 46 31v5q0 11 -9.5 19t-30.5 8q-23 0 -35.5 -9.5t-15.5 -25.5h-119q32 142 183 142q79 0 114.5 -27.5t35.5 -70.5q0 -9 -2 -20q-5 -35 -27 -58t-57 -31q36 -5 51 -25t15 -45q0 -9 -2 -19q-9 -56 -58 -87t-133 -31q-78 0 -112 33
t-34 88q0 10 1 21h119v-4q0 -12 11 -22t36 -10q50 0 56 34z" />
    <glyph glyph-name="acute" unicode="&#xb4;" horiz-adv-x="288" 
d="M78 650l220 124l37 -96l-226 -107z" />
    <glyph glyph-name="paragraph" unicode="&#xb6;" horiz-adv-x="634" 
d="M255 222q-51 0 -89.5 16t-63.5 45.5t-32.5 61t-7.5 56.5q0 21 4 44q8 51 30.5 92.5t56.5 71t78 45.5t95 16h112l-127 -803h-112zM518 670h112l-127 -803h-112z" />
    <glyph glyph-name="periodcentered" unicode="&#xb7;" horiz-adv-x="228" 
d="M49 343q3 16 11.5 30.5t21 25t28 17t32.5 6.5q32 0 49 -21t17 -45q0 -6 -1 -13q-5 -33 -31.5 -56t-58.5 -23q-34 0 -51.5 20.5t-17.5 45.5q0 6 1 13z" />
    <glyph glyph-name="cedilla" unicode="&#xb8;" horiz-adv-x="217" 
d="M135 10l-33 -33q17 -10 27.5 -26.5t10.5 -37.5q0 -8 -1 -17q-7 -43 -42 -68t-78 -25h-69l14 90q27 0 43.5 9t19.5 27v5q0 9 -6.5 17.5t-20.5 11.5l47 47h88z" />
    <glyph glyph-name="onesuperior" unicode="&#xb9;" horiz-adv-x="268" 
d="M158 655h-59l15 95h170l-64 -402h-111z" />
    <glyph glyph-name="ordmasculine" unicode="&#xba;" horiz-adv-x="490" 
d="M71 477q7 45 28.5 82.5t53.5 65t72.5 42.5t86.5 15t82 -15.5t60 -42.5t31.5 -56.5t7.5 -53.5q0 -18 -3 -37q-7 -45 -28.5 -83t-54 -65t-73.5 -42.5t-86 -15.5q-46 0 -82 15t-59.5 42.5t-31 57.5t-7.5 54q0 18 3 37zM204 476q-1 -7 -1 -14q0 -24 16 -44t50 -20
q33 0 58 22.5t30 55.5q1 7 1 14q0 24 -15.5 45t-48.5 21q-35 0 -60 -23.5t-30 -56.5z" />
    <glyph glyph-name="guillemotright" unicode="&#xbb;" horiz-adv-x="555" 
d="M264 94l20 127l138 69l-116 70l20 127l209 -135l-19 -123zM10 94l20 127l138 69l-116 70l21 127l209 -135l-20 -123z" />
    <glyph glyph-name="onequarter" unicode="&#xbc;" horiz-adv-x="857" 
d="M547 710h116l-422 -750h-116zM145 575h-59l15 95h170l-64 -402h-111zM675 402h120l-39 -242h50l-13 -85h-50l-12 -75h-112l12 75h-200l13 85zM556 160h88l18 112z" />
    <glyph glyph-name="onehalf" unicode="&#xbd;" horiz-adv-x="867" 
d="M546 710h116l-422 -750h-116zM145 575h-59l15 95h170l-64 -402h-111zM490 100q42 23 81 45.5t69.5 44t50.5 42t23 39.5q1 3 1 6q0 10 -5.5 19t-28.5 9t-34.5 -14.5t-14.5 -34.5h-118q13 77 57.5 116.5t126.5 39.5q76 0 107.5 -30t31.5 -72q0 -11 -2 -23q-8 -54 -48 -97.5
t-115 -89.5h134l-15 -96h-316z" />
    <glyph glyph-name="threequarters" unicode="&#xbe;" horiz-adv-x="995" 
d="M682 710h116l-422 -750h-116zM281 406q1 3 1 6q0 27 -50 27h-59l11 71h64q41 0 46 31q1 3 1 6q0 26 -40 26q-23 0 -36 -9.5t-16 -25.5h-119q32 142 184 142q79 0 114 -27.5t35 -69.5q0 -10 -2 -21q-11 -73 -84 -89q37 -5 52 -25t15 -45q0 -9 -2 -19q-9 -56 -58.5 -87
t-133.5 -31q-78 0 -111.5 33t-33.5 85q0 12 1 24h118v-4q0 -12 11 -22t36 -10q24 0 39 9t17 25zM813 402h120l-39 -242h50l-13 -85h-50l-12 -75h-112l12 75h-200l13 85zM694 160h88l18 112z" />
    <glyph glyph-name="questiondown" unicode="&#xbf;" horiz-adv-x="546" 
d="M378 409q-2 -16 -10.5 -30.5t-21 -25t-28 -16.5t-32.5 -6q-32 0 -49.5 21t-17.5 46q0 5 1 11q5 34 32 57t59 23q34 0 51 -20.5t17 -45.5q0 -7 -1 -14zM339 163l-92 -40q-47 -21 -67 -42.5t-25 -54.5q-2 -9 -2 -18q0 -57 73 -57q39 0 64 22t34 63h153
q-22 -116 -91.5 -176.5t-190.5 -60.5q-115 0 -159 47.5t-44 112.5q0 21 4 45q12 79 72 139t176 108l117 50z" />
    <glyph glyph-name="Agrave" unicode="&#xc0;" horiz-adv-x="685" 
d="M314 670h189l140 -670h-157l-25 118h-280l-62 -118h-157zM437 240l-54 263l-139 -263h193zM283 820l69 96l180 -124l-57 -79z" />
    <glyph glyph-name="Aacute" unicode="&#xc1;" horiz-adv-x="685" 
d="M314 670h189l140 -670h-157l-25 118h-280l-62 -118h-157zM437 240l-54 263l-139 -263h193zM279 792l220 124l37 -96l-226 -107z" />
    <glyph glyph-name="Acircumflex" unicode="&#xc2;" horiz-adv-x="685" 
d="M314 670h189l140 -670h-157l-25 118h-280l-62 -118h-157zM437 240l-54 263l-139 -263h193zM239 772l137 124h91l99 -124l-61 -56l-97 86l-126 -86z" />
    <glyph glyph-name="Atilde" unicode="&#xc3;" horiz-adv-x="685" 
d="M314 670h189l140 -670h-157l-25 118h-280l-62 -118h-157zM437 240l-54 263l-139 -263h193zM423 849q9 -5 19 -10.5t22.5 -5.5t29.5 8t40 29l16 -86q-29 -22 -51 -33t-33.5 -12.5t-15.5 -1.5q-13 0 -27 5t-31 15q-9 5 -18.5 10.5t-22.5 5.5t-30 -8t-40 -29l-15 86
q29 23 51 33.5t33.5 12t15.5 1.5q13 0 26.5 -5t30.5 -15z" />
    <glyph glyph-name="Adieresis" unicode="&#xc4;" horiz-adv-x="685" 
d="M314 670h189l140 -670h-157l-25 118h-280l-62 -118h-157zM437 240l-54 263l-139 -263h193zM275 811q4 26 23.5 43t45.5 17t39 -15t13 -34q0 -5 -1 -11q-4 -25 -23.5 -42t-45.5 -17t-39 15t-13 34q0 5 1 10zM424 811q4 26 23.5 43t45.5 17t38.5 -15t12.5 -34q0 -5 -1 -11
q-4 -25 -23 -42t-45 -17t-39 15t-13 34q0 5 1 10z" />
    <glyph glyph-name="Aring" unicode="&#xc5;" horiz-adv-x="685" 
d="M314 670h189l140 -670h-157l-25 118h-280l-62 -118h-157zM437 240l-54 263l-139 -263h193zM295 813q8 51 44.5 82.5t87.5 31.5q52 0 75 -28t23 -63q0 -11 -2 -23q-8 -52 -44 -83.5t-88 -31.5q-51 0 -74.5 28t-23.5 64q0 11 2 23zM376 813q-1 -4 -1 -8q0 -26 29 -26
q34 0 39 34q1 5 1 9q0 24 -29 24q-33 0 -39 -33z" />
    <glyph glyph-name="AE" unicode="&#xc6;" horiz-adv-x="896" 
d="M399 102h-201l-69 -102h-167l456 670h503l-22 -137h-278l-21 -133h219l-21 -132h-219l-20 -131h278l-22 -137h-432zM418 224l43 265l-182 -265h139z" />
    <glyph glyph-name="Ccedilla" unicode="&#xc7;" horiz-adv-x="752" 
d="M48 335q11 71 48.5 134t92.5 110t122.5 74t139.5 27q65 0 118.5 -20t92.5 -56t61.5 -86t23.5 -110h-172q-8 54 -48 86t-100 32q-39 0 -75.5 -15t-65.5 -41t-49.5 -60.5t-26.5 -73.5q-2 -16 -2 -31q0 -23 7 -51t28 -54t52.5 -41t70.5 -15q60 0 110.5 32t76.5 86h171
q-19 -54 -52.5 -100.5t-77.5 -81.5t-96.5 -57.5t-110.5 -29.5l-16 -16q17 -10 28 -27t11 -37q0 -8 -1 -17q-8 -43 -43 -68t-78 -25h-69l15 90q56 0 62 36v5q0 9 -6.5 17.5t-20.5 11.5l30 30q-63 8 -114 37.5t-85 75.5t-45 92.5t-11 82.5q0 27 4 54z" />
    <glyph glyph-name="Egrave" unicode="&#xc8;" horiz-adv-x="604" 
d="M136 670h492l-22 -137h-338l-21 -133h279l-20 -132h-279l-21 -131h338l-22 -137h-492zM243 820l69 96l180 -124l-57 -79z" />
    <glyph glyph-name="Eacute" unicode="&#xc9;" horiz-adv-x="604" 
d="M136 670h492l-22 -137h-338l-21 -133h279l-20 -132h-279l-21 -131h338l-22 -137h-492zM239 792l220 124l37 -96l-226 -107z" />
    <glyph glyph-name="Ecircumflex" unicode="&#xca;" horiz-adv-x="604" 
d="M136 670h492l-22 -137h-338l-21 -133h279l-20 -132h-279l-21 -131h338l-22 -137h-492zM198 772l137 124h91l99 -124l-61 -56l-97 86l-126 -86z" />
    <glyph glyph-name="Edieresis" unicode="&#xcb;" horiz-adv-x="604" 
d="M136 670h492l-22 -137h-338l-21 -133h279l-20 -132h-279l-21 -131h338l-22 -137h-492zM234 811q4 26 23.5 43t45.5 17t39 -15t13 -34q0 -5 -1 -11q-4 -25 -23.5 -42t-45.5 -17t-39 15t-13 34q0 5 1 10zM383 811q4 26 23.5 43t45.5 17t38.5 -15t12.5 -34q0 -5 -1 -11
q-4 -25 -23 -42t-45 -17t-39 15t-13 34q0 5 1 10z" />
    <glyph glyph-name="Igrave" unicode="&#xcc;" horiz-adv-x="294" 
d="M136 670h154l-106 -670h-154zM108 820l69 96l180 -124l-57 -79z" />
    <glyph glyph-name="Iacute" unicode="&#xcd;" horiz-adv-x="294" 
d="M136 670h154l-106 -670h-154zM112 792l220 124l37 -96l-226 -107z" />
    <glyph glyph-name="Icircumflex" unicode="&#xce;" horiz-adv-x="294" 
d="M136 670h154l-106 -670h-154zM75 772l137 124h91l99 -124l-61 -56l-97 86l-126 -86z" />
    <glyph glyph-name="Idieresis" unicode="&#xcf;" horiz-adv-x="294" 
d="M136 670h154l-106 -670h-154zM106 811q4 26 23.5 43t45.5 17t39 -15t13 -34q0 -5 -1 -11q-4 -25 -23.5 -42t-45.5 -17t-39 15t-13 34q0 5 1 10zM255 811q4 26 23.5 43t45.5 17t38.5 -15t12.5 -34q0 -5 -1 -11q-4 -25 -23 -42t-45 -17t-39 15t-13 34q0 5 1 10z" />
    <glyph glyph-name="Eth" unicode="&#xd0;" horiz-adv-x="715" 
d="M30 0l44 276h-58l19 120h58l43 274h271q74 0 132.5 -25t96.5 -69.5t50 -92.5t12 -86q0 -30 -5 -62q-12 -73 -46.5 -135t-86.5 -106t-118.5 -69t-140.5 -25h-271zM208 150h117q39 0 74 13.5t62 37.5t45 58t25 76q3 20 3 39t-5.5 45t-25 50t-50.5 37.5t-70 13.5h-117
l-19 -124h108l-19 -120h-108z" />
    <glyph glyph-name="Ntilde" unicode="&#xd1;" horiz-adv-x="733" 
d="M136 670h194l175 -445l70 445h154l-106 -670h-193l-175 446l-71 -446h-154zM447 849q9 -5 19 -10.5t22.5 -5.5t29.5 8t40 29l16 -86q-29 -22 -51 -33t-33.5 -12.5t-15.5 -1.5q-13 0 -27 5t-31 15q-9 5 -18.5 10.5t-22.5 5.5t-30 -8t-40 -29l-15 86q29 23 51 33.5t33.5 12
t15.5 1.5q13 0 26.5 -5t30.5 -15z" />
    <glyph glyph-name="Ograve" unicode="&#xd2;" horiz-adv-x="766" 
d="M48 335q11 71 48.5 134t92.5 110t122.5 74t139.5 27t131 -27t99 -74t53.5 -97.5t13.5 -91.5q0 -27 -4 -55q-11 -72 -48.5 -134.5t-92 -109.5t-122.5 -74t-140 -27t-131 27t-98.5 74t-53.5 97.5t-14 92.5q0 26 4 54zM210 336q-2 -16 -2 -31q0 -23 7 -51t28 -54t52.5 -41
t70.5 -15t75 15t65.5 41t49.5 61t26 75q2 16 2 30q0 23 -7 50.5t-28.5 53.5t-53 41t-69.5 15t-74.5 -15t-65.5 -41t-49.5 -60.5t-26.5 -73.5zM324 820l69 96l180 -124l-57 -79z" />
    <glyph glyph-name="Oacute" unicode="&#xd3;" horiz-adv-x="766" 
d="M48 335q11 71 48.5 134t92.5 110t122.5 74t139.5 27t131 -27t99 -74t53.5 -97.5t13.5 -91.5q0 -27 -4 -55q-11 -72 -48.5 -134.5t-92 -109.5t-122.5 -74t-140 -27t-131 27t-98.5 74t-53.5 97.5t-14 92.5q0 26 4 54zM210 336q-2 -16 -2 -31q0 -23 7 -51t28 -54t52.5 -41
t70.5 -15t75 15t65.5 41t49.5 61t26 75q2 16 2 30q0 23 -7 50.5t-28.5 53.5t-53 41t-69.5 15t-74.5 -15t-65.5 -41t-49.5 -60.5t-26.5 -73.5zM320 792l220 124l37 -96l-226 -107z" />
    <glyph glyph-name="Ocircumflex" unicode="&#xd4;" horiz-adv-x="766" 
d="M48 335q11 71 48.5 134t92.5 110t122.5 74t139.5 27t131 -27t99 -74t53.5 -97.5t13.5 -91.5q0 -27 -4 -55q-11 -72 -48.5 -134.5t-92 -109.5t-122.5 -74t-140 -27t-131 27t-98.5 74t-53.5 97.5t-14 92.5q0 26 4 54zM210 336q-2 -16 -2 -31q0 -23 7 -51t28 -54t52.5 -41
t70.5 -15t75 15t65.5 41t49.5 61t26 75q2 16 2 30q0 23 -7 50.5t-28.5 53.5t-53 41t-69.5 15t-74.5 -15t-65.5 -41t-49.5 -60.5t-26.5 -73.5zM280 772l137 124h91l99 -124l-61 -56l-97 86l-126 -86z" />
    <glyph glyph-name="Otilde" unicode="&#xd5;" horiz-adv-x="766" 
d="M48 335q11 71 48.5 134t92.5 110t122.5 74t139.5 27t131 -27t99 -74t53.5 -97.5t13.5 -91.5q0 -27 -4 -55q-11 -72 -48.5 -134.5t-92 -109.5t-122.5 -74t-140 -27t-131 27t-98.5 74t-53.5 97.5t-14 92.5q0 26 4 54zM210 336q-2 -16 -2 -31q0 -23 7 -51t28 -54t52.5 -41
t70.5 -15t75 15t65.5 41t49.5 61t26 75q2 16 2 30q0 23 -7 50.5t-28.5 53.5t-53 41t-69.5 15t-74.5 -15t-65.5 -41t-49.5 -60.5t-26.5 -73.5zM463 849q9 -5 19 -10.5t22.5 -5.5t29.5 8t40 29l16 -86q-29 -22 -51 -33t-33.5 -12.5t-15.5 -1.5q-13 0 -27 5t-31 15
q-9 5 -18.5 10.5t-22.5 5.5t-30 -8t-40 -29l-15 86q29 23 51 33.5t33.5 12t15.5 1.5q13 0 26.5 -5t30.5 -15z" />
    <glyph glyph-name="Odieresis" unicode="&#xd6;" horiz-adv-x="766" 
d="M48 335q11 71 48.5 134t92.5 110t122.5 74t139.5 27t131 -27t99 -74t53.5 -97.5t13.5 -91.5q0 -27 -4 -55q-11 -72 -48.5 -134.5t-92 -109.5t-122.5 -74t-140 -27t-131 27t-98.5 74t-53.5 97.5t-14 92.5q0 26 4 54zM210 336q-2 -16 -2 -31q0 -23 7 -51t28 -54t52.5 -41
t70.5 -15t75 15t65.5 41t49.5 61t26 75q2 16 2 30q0 23 -7 50.5t-28.5 53.5t-53 41t-69.5 15t-74.5 -15t-65.5 -41t-49.5 -60.5t-26.5 -73.5zM315 811q4 26 23.5 43t45.5 17t39 -15t13 -34q0 -5 -1 -11q-4 -25 -23.5 -42t-45.5 -17t-39 15t-13 34q0 5 1 10zM464 811
q4 26 23.5 43t45.5 17t38.5 -15t12.5 -34q0 -5 -1 -11q-4 -25 -23 -42t-45 -17t-39 15t-13 34q0 5 1 10z" />
    <glyph glyph-name="multiply" unicode="&#xd7;" horiz-adv-x="427" 
d="M111 463l103 -101l102 101l76 -75l-102 -103l101 -102l-75 -76l-102 103l-103 -103l-75 76l102 102l-103 103z" />
    <glyph glyph-name="Oslash" unicode="&#xd8;" horiz-adv-x="766" 
d="M48 335q11 71 48.5 134t92.5 110t122.5 74t139.5 27q40 0 76 -9l22 39h116l-44 -79q35 -22 61 -53.5t42.5 -69.5t20.5 -69t4 -49q0 -27 -5 -55q-11 -72 -48.5 -134.5t-92 -109.5t-122.5 -74t-140 -27q-40 0 -76 9l-22 -39h-116l44 79q-34 23 -60.5 54t-43 69t-20 69
t-3.5 50q0 27 4 54zM210 336q-3 -16 -3 -31q0 -27 10.5 -58t38.5 -57l188 333q-12 3 -25 3q-37 -1 -72 -17t-63.5 -41.5t-48 -59.5t-25.5 -72zM348 147q11 -3 24 -3q38 2 73 17.5t63.5 41.5t48 60t25.5 73q3 16 3 31q0 26 -10.5 57t-38.5 56z" />
    <glyph glyph-name="Ugrave" unicode="&#xd9;" horiz-adv-x="702" 
d="M310 -10q-140 0 -196.5 62.5t-56.5 150.5q0 29 5 62l64 405h154l-62 -392q-3 -18 -3 -33q0 -44 27 -76.5t92 -32.5q64 0 105.5 37.5t52.5 104.5l62 392h154l-64 -405q-21 -133 -107.5 -204t-226.5 -71zM292 820l69 96l180 -124l-57 -79z" />
    <glyph glyph-name="Uacute" unicode="&#xda;" horiz-adv-x="702" 
d="M310 -10q-140 0 -196.5 62.5t-56.5 150.5q0 29 5 62l64 405h154l-62 -392q-3 -18 -3 -33q0 -44 27 -76.5t92 -32.5q64 0 105.5 37.5t52.5 104.5l62 392h154l-64 -405q-21 -133 -107.5 -204t-226.5 -71zM288 792l220 124l37 -96l-226 -107z" />
    <glyph glyph-name="Ucircumflex" unicode="&#xdb;" horiz-adv-x="702" 
d="M310 -10q-140 0 -196.5 62.5t-56.5 150.5q0 29 5 62l64 405h154l-62 -392q-3 -18 -3 -33q0 -44 27 -76.5t92 -32.5q64 0 105.5 37.5t52.5 104.5l62 392h154l-64 -405q-21 -133 -107.5 -204t-226.5 -71zM248 772l137 124h91l99 -124l-61 -56l-97 86l-126 -86z" />
    <glyph glyph-name="Udieresis" unicode="&#xdc;" horiz-adv-x="702" 
d="M310 -10q-140 0 -196.5 62.5t-56.5 150.5q0 29 5 62l64 405h154l-62 -392q-3 -18 -3 -33q0 -44 27 -76.5t92 -32.5q64 0 105.5 37.5t52.5 104.5l62 392h154l-64 -405q-21 -133 -107.5 -204t-226.5 -71zM283 811q4 26 23.5 43t45.5 17t39 -15t13 -34q0 -5 -1 -11
q-4 -25 -23.5 -42t-45.5 -17t-39 15t-13 34q0 5 1 10zM432 811q4 26 23.5 43t45.5 17t38.5 -15t12.5 -34q0 -5 -1 -11q-4 -25 -23 -42t-45 -17t-39 15t-13 34q0 5 1 10z" />
    <glyph glyph-name="Yacute" unicode="&#xdd;" horiz-adv-x="661" 
d="M249 670l103 -287l193 287h181l-324 -457l-34 -213h-154l34 213l-180 457h181zM267 792l220 124l37 -96l-226 -107z" />
    <glyph glyph-name="Thorn" unicode="&#xde;" horiz-adv-x="657" 
d="M397 580q64 0 112.5 -17.5t79 -50t40 -68t9.5 -65.5q0 -23 -4 -47q-9 -56 -35 -101t-67 -76.5t-94.5 -48t-118.5 -16.5l-127 1l-15 -91h-154l106 670h154l-14 -90h128zM331 229q60 0 96.5 26.5t44.5 74.5q2 11 2 20q0 34 -25.5 58t-84.5 24h-119l-32 -203h118z" />
    <glyph glyph-name="germandbls" unicode="&#xdf;" horiz-adv-x="668" 
d="M583 555q-6 -42 -25.5 -68t-41 -44t-39.5 -32.5t-21 -33.5q-1 -3 -1 -6q0 -13 12 -21.5t32.5 -17t44.5 -18t43 -26.5t27.5 -38.5t8.5 -43.5q0 -15 -3 -32q-14 -90 -88 -132t-199 -42h-88l19 126h85q50 0 85 13t40 44q1 4 1 8q0 14 -10.5 24.5t-30 19.5t-42 18t-41 23
t-27.5 32t-9 38q0 10 2 21q6 36 24.5 59.5t39 41t37.5 33t19 37.5v4q0 22 -20.5 35.5t-62.5 13.5q-47 0 -74.5 -21.5t-34.5 -61.5l-80 -508h-149l82 519q16 98 87 149.5t192 51.5q112 0 160.5 -39.5t48.5 -96.5q0 -14 -3 -29z" />
    <glyph glyph-name="agrave" unicode="&#xe0;" horiz-adv-x="637" 
d="M541 0h-149l10 62q-29 -33 -68 -52t-95 -19t-99 20.5t-70.5 56.5t-35.5 74.5t-8 67.5q0 26 4 53q9 60 35.5 110t65.5 87t89 57.5t105 20.5q56 0 89.5 -19.5t51.5 -53.5l10 63h149zM437 282v6q0 42 -28 72.5t-80 30.5q-29 0 -53.5 -10t-43.5 -27.5t-31.5 -41t-16.5 -49.5
q-2 -11 -2 -22q0 -13 4 -31t17.5 -35t35.5 -27t50 -10q52 0 90.5 31t51.5 76zM259 678l69 96l180 -124l-57 -79z" />
    <glyph glyph-name="aacute" unicode="&#xe1;" horiz-adv-x="637" 
d="M541 0h-149l10 62q-29 -33 -68 -52t-95 -19t-99 20.5t-70.5 56.5t-35.5 74.5t-8 67.5q0 26 4 53q9 60 35.5 110t65.5 87t89 57.5t105 20.5q56 0 89.5 -19.5t51.5 -53.5l10 63h149zM437 282v6q0 42 -28 72.5t-80 30.5q-29 0 -53.5 -10t-43.5 -27.5t-31.5 -41t-16.5 -49.5
q-2 -11 -2 -22q0 -13 4 -31t17.5 -35t35.5 -27t50 -10q52 0 90.5 31t51.5 76zM255 650l220 124l37 -96l-226 -107z" />
    <glyph glyph-name="acircumflex" unicode="&#xe2;" horiz-adv-x="637" 
d="M541 0h-149l10 62q-29 -33 -68 -52t-95 -19t-99 20.5t-70.5 56.5t-35.5 74.5t-8 67.5q0 26 4 53q9 60 35.5 110t65.5 87t89 57.5t105 20.5q56 0 89.5 -19.5t51.5 -53.5l10 63h149zM437 282v6q0 42 -28 72.5t-80 30.5q-29 0 -53.5 -10t-43.5 -27.5t-31.5 -41t-16.5 -49.5
q-2 -11 -2 -22q0 -13 4 -31t17.5 -35t35.5 -27t50 -10q52 0 90.5 31t51.5 76zM215 630l137 124h91l99 -124l-61 -56l-97 86l-126 -86z" />
    <glyph glyph-name="atilde" unicode="&#xe3;" horiz-adv-x="637" 
d="M541 0h-149l10 62q-29 -33 -68 -52t-95 -19t-99 20.5t-70.5 56.5t-35.5 74.5t-8 67.5q0 26 4 53q9 60 35.5 110t65.5 87t89 57.5t105 20.5q56 0 89.5 -19.5t51.5 -53.5l10 63h149zM437 282v6q0 42 -28 72.5t-80 30.5q-29 0 -53.5 -10t-43.5 -27.5t-31.5 -41t-16.5 -49.5
q-2 -11 -2 -22q0 -13 4 -31t17.5 -35t35.5 -27t50 -10q52 0 90.5 31t51.5 76zM398 707q9 -5 19 -10.5t22.5 -5.5t29.5 8t40 29l16 -86q-29 -22 -51 -33t-33.5 -12.5t-15.5 -1.5q-13 0 -27 5t-31 15q-9 5 -18.5 10.5t-22.5 5.5t-30 -8t-40 -29l-15 86q29 23 51 33.5t33.5 12
t15.5 1.5q13 0 26.5 -5t30.5 -15z" />
    <glyph glyph-name="adieresis" unicode="&#xe4;" horiz-adv-x="637" 
d="M541 0h-149l10 62q-29 -33 -68 -52t-95 -19t-99 20.5t-70.5 56.5t-35.5 74.5t-8 67.5q0 26 4 53q9 60 35.5 110t65.5 87t89 57.5t105 20.5q56 0 89.5 -19.5t51.5 -53.5l10 63h149zM437 282v6q0 42 -28 72.5t-80 30.5q-29 0 -53.5 -10t-43.5 -27.5t-31.5 -41t-16.5 -49.5
q-2 -11 -2 -22q0 -13 4 -31t17.5 -35t35.5 -27t50 -10q52 0 90.5 31t51.5 76zM251 669q4 26 23.5 43t45.5 17t39 -15t13 -34q0 -5 -1 -11q-4 -25 -23.5 -42t-45.5 -17t-39 15t-13 34q0 5 1 10zM400 669q4 26 23.5 43t45.5 17t38.5 -15t12.5 -34q0 -5 -1 -11q-4 -25 -23 -42
t-45 -17t-39 15t-13 34q0 5 1 10z" />
    <glyph glyph-name="aring" unicode="&#xe5;" horiz-adv-x="637" 
d="M541 0h-149l10 62q-29 -33 -68 -52t-95 -19t-99 20.5t-70.5 56.5t-35.5 74.5t-8 67.5q0 26 4 53q9 60 35.5 110t65.5 87t89 57.5t105 20.5q56 0 89.5 -19.5t51.5 -53.5l10 63h149zM437 282v6q0 42 -28 72.5t-80 30.5q-29 0 -53.5 -10t-43.5 -27.5t-31.5 -41t-16.5 -49.5
q-2 -11 -2 -22q0 -13 4 -31t17.5 -35t35.5 -27t50 -10q52 0 90.5 31t51.5 76zM271 671q8 51 44.5 82.5t87.5 31.5q52 0 75 -28t23 -63q0 -11 -2 -23q-8 -52 -44 -83.5t-88 -31.5q-51 0 -74.5 28t-23.5 64q0 11 2 23zM352 671q-1 -4 -1 -8q0 -26 29 -26q34 0 39 34q1 5 1 9
q0 24 -29 24q-33 0 -39 -33z" />
    <glyph glyph-name="ae" unicode="&#xe6;" horiz-adv-x="1011" 
d="M541 0h-149l10 62q-29 -33 -68 -52t-95 -19t-99 20.5t-71 56.5t-36 74t-8 66q0 26 5 55q9 60 35.5 110t66 87t89 57.5t105.5 20.5q55 0 88.5 -19.5t50.5 -53.5l10 63h149l-4 -27q29 17 62.5 27t69.5 10q56 0 101 -16.5t76 -47t45.5 -69.5t14.5 -81v-16q-1 -23 -3.5 -40
t-6.5 -37h-396q0 -47 28 -76.5t80 -29.5q32 0 62 16t47 39h162q-35 -87 -113 -138t-181 -51q-36 0 -67.5 10t-55.5 28zM832 313q0 40 -27.5 65.5t-72.5 25.5q-46 0 -80.5 -25t-51.5 -66h232zM437 282v6q0 42 -28.5 72.5t-79.5 30.5q-29 0 -54 -10t-44 -27.5t-31.5 -41
t-16.5 -49.5q-2 -11 -2 -21q0 -14 4.5 -32t18 -35t35.5 -27t50 -10q52 0 90.5 31t50.5 76z" />
    <glyph glyph-name="ccedilla" unicode="&#xe7;" horiz-adv-x="603" 
d="M30 264q9 59 37.5 109.5t71.5 87t96.5 57t113.5 20.5q54 0 98 -16.5t75 -46.5t46 -69.5t15 -83.5v-11h-158q-5 35 -31 57.5t-67 22.5q-28 0 -52 -10t-43 -27.5t-31.5 -41t-17.5 -49.5q-2 -11 -2 -21q0 -14 4.5 -32t18 -35t35 -27t48.5 -10q41 0 73.5 21.5t48.5 54.5h159
q-13 -43 -37.5 -80.5t-58 -66t-74.5 -47t-87 -25.5l-17 -18q17 -10 27.5 -26.5t10.5 -37.5q0 -8 -1 -17q-7 -43 -42 -68t-78 -25h-69l14 90q27 0 43.5 9t19.5 27v5q0 9 -6.5 17.5t-20.5 11.5l30 31q-51 6 -90.5 29t-65 58.5t-33 71t-7.5 62.5q0 23 4 49z" />
    <glyph glyph-name="egrave" unicode="&#xe8;" horiz-adv-x="606" 
d="M178 231q0 -47 28.5 -76.5t80.5 -29.5q32 0 62 16t47 39h161q-18 -43 -47 -78t-67 -59.5t-83.5 -38t-96.5 -13.5q-60 0 -107 20.5t-78.5 57t-41.5 76t-10 71.5q0 23 4 48q9 59 37.5 109.5t70.5 87t95.5 57t113.5 20.5q56 0 101 -16.5t76.5 -47t46 -69.5t14.5 -81v-16
q-2 -23 -4 -40t-6 -37h-397zM428 313q-1 40 -28 65.5t-72 25.5q-47 0 -81 -25t-51 -66h232zM244 678l69 96l180 -124l-57 -79z" />
    <glyph glyph-name="eacute" unicode="&#xe9;" horiz-adv-x="606" 
d="M178 231q0 -47 28.5 -76.5t80.5 -29.5q32 0 62 16t47 39h161q-18 -43 -47 -78t-67 -59.5t-83.5 -38t-96.5 -13.5q-60 0 -107 20.5t-78.5 57t-41.5 76t-10 71.5q0 23 4 48q9 59 37.5 109.5t70.5 87t95.5 57t113.5 20.5q56 0 101 -16.5t76.5 -47t46 -69.5t14.5 -81v-16
q-2 -23 -4 -40t-6 -37h-397zM428 313q-1 40 -28 65.5t-72 25.5q-47 0 -81 -25t-51 -66h232zM240 650l220 124l37 -96l-226 -107z" />
    <glyph glyph-name="ecircumflex" unicode="&#xea;" horiz-adv-x="606" 
d="M178 231q0 -47 28.5 -76.5t80.5 -29.5q32 0 62 16t47 39h161q-18 -43 -47 -78t-67 -59.5t-83.5 -38t-96.5 -13.5q-60 0 -107 20.5t-78.5 57t-41.5 76t-10 71.5q0 23 4 48q9 59 37.5 109.5t70.5 87t95.5 57t113.5 20.5q56 0 101 -16.5t76.5 -47t46 -69.5t14.5 -81v-16
q-2 -23 -4 -40t-6 -37h-397zM428 313q-1 40 -28 65.5t-72 25.5q-47 0 -81 -25t-51 -66h232zM199 630l137 124h91l99 -124l-61 -56l-97 86l-126 -86z" />
    <glyph glyph-name="edieresis" unicode="&#xeb;" horiz-adv-x="606" 
d="M178 231q0 -47 28.5 -76.5t80.5 -29.5q32 0 62 16t47 39h161q-18 -43 -47 -78t-67 -59.5t-83.5 -38t-96.5 -13.5q-60 0 -107 20.5t-78.5 57t-41.5 76t-10 71.5q0 23 4 48q9 59 37.5 109.5t70.5 87t95.5 57t113.5 20.5q56 0 101 -16.5t76.5 -47t46 -69.5t14.5 -81v-16
q-2 -23 -4 -40t-6 -37h-397zM428 313q-1 40 -28 65.5t-72 25.5q-47 0 -81 -25t-51 -66h232zM235 669q4 26 23.5 43t45.5 17t39 -15t13 -34q0 -5 -1 -11q-4 -25 -23.5 -42t-45.5 -17t-39 15t-13 34q0 5 1 10zM384 669q4 26 23.5 43t45.5 17t38.5 -15t12.5 -34q0 -5 -1 -11
q-4 -25 -23 -42t-45 -17t-39 15t-13 34q0 5 1 10z" />
    <glyph glyph-name="igrave" unicode="&#xec;" horiz-adv-x="261" 
d="M100 528h149l-84 -528h-149zM71 678l69 96l180 -124l-57 -79z" />
    <glyph glyph-name="iacute" unicode="&#xed;" horiz-adv-x="261" 
d="M100 528h149l-84 -528h-149zM67 650l220 124l37 -96l-226 -107z" />
    <glyph glyph-name="icircumflex" unicode="&#xee;" horiz-adv-x="261" 
d="M100 528h149l-84 -528h-149zM27 630l137 124h91l99 -124l-61 -56l-97 86l-126 -86z" />
    <glyph glyph-name="idieresis" unicode="&#xef;" horiz-adv-x="261" 
d="M100 528h149l-84 -528h-149zM62 669q4 26 23.5 43t45.5 17t39 -15t13 -34q0 -5 -1 -11q-4 -25 -23.5 -42t-45.5 -17t-39 15t-13 34q0 5 1 10zM211 669q4 26 23.5 43t45.5 17t38.5 -15t12.5 -34q0 -5 -1 -11q-4 -25 -23 -42t-45 -17t-39 15t-13 34q0 5 1 10z" />
    <glyph glyph-name="eth" unicode="&#xf0;" horiz-adv-x="589" 
d="M538 230q-9 -55 -35.5 -99.5t-67 -75.5t-91 -48t-107.5 -17q-56 0 -100 15t-72.5 42t-38.5 58t-10 59q0 16 3 33q14 91 75 141.5t165 50.5q47 0 85.5 -13.5t64.5 -37.5l4 22q4 22 4 41q0 53 -31 86l-99 -73l-50 73l61 45q-53 14 -124 14l21 134q150 0 243 -44l90 67
l50 -73l-64 -47q52 -57 52 -147q0 -28 -5 -59zM382 230q-15 27 -45 42.5t-62 15.5q-39 0 -66.5 -22t-33.5 -60q-1 -8 -1 -15q0 -27 20.5 -47t64.5 -20q42 0 74 24.5t46 65.5z" />
    <glyph glyph-name="ntilde" unicode="&#xf1;" horiz-adv-x="612" 
d="M100 528h149l-13 -77q35 41 81.5 64t100.5 23q42 0 73.5 -14.5t51.5 -40t25.5 -52t5.5 -46.5q0 -19 -4 -41l-54 -344h-149l46 292q2 12 2 23q0 29 -18.5 52t-57.5 23q-25 0 -47 -10.5t-39.5 -28t-29 -40t-16.5 -47.5l-42 -264h-149zM386 707q9 -5 19 -10.5t22.5 -5.5
t29.5 8t40 29l16 -86q-29 -22 -51 -33t-33.5 -12.5t-15.5 -1.5q-13 0 -27 5t-31 15q-9 5 -18.5 10.5t-22.5 5.5t-30 -8t-40 -29l-15 86q29 23 51 33.5t33.5 12t15.5 1.5q13 0 26.5 -5t30.5 -15z" />
    <glyph glyph-name="ograve" unicode="&#xf2;" horiz-adv-x="610" 
d="M30 264q9 59 38 109.5t71.5 87t96 57t113.5 20.5t107.5 -20.5t79 -57.5t42 -77t10.5 -72q0 -23 -4 -47q-9 -59 -38 -109t-72 -86.5t-97 -57t-114 -20.5t-107 20.5t-78.5 57t-41.5 76t-10 71.5q0 23 4 48zM184 263q-2 -11 -2 -21q0 -14 4.5 -32t18 -35t35 -27t48.5 -10
t51 10t42.5 27t31 40t16.5 48q2 12 2 23q0 13 -4 31.5t-17 36t-34 27.5t-48 10q-28 0 -52.5 -10t-43.5 -27.5t-31.5 -41t-16.5 -49.5zM246 678l69 96l180 -124l-57 -79z" />
    <glyph glyph-name="oacute" unicode="&#xf3;" horiz-adv-x="610" 
d="M30 264q9 59 38 109.5t71.5 87t96 57t113.5 20.5t107.5 -20.5t79 -57.5t42 -77t10.5 -72q0 -23 -4 -47q-9 -59 -38 -109t-72 -86.5t-97 -57t-114 -20.5t-107 20.5t-78.5 57t-41.5 76t-10 71.5q0 23 4 48zM184 263q-2 -11 -2 -21q0 -14 4.5 -32t18 -35t35 -27t48.5 -10
t51 10t42.5 27t31 40t16.5 48q2 12 2 23q0 13 -4 31.5t-17 36t-34 27.5t-48 10q-28 0 -52.5 -10t-43.5 -27.5t-31.5 -41t-16.5 -49.5zM242 650l220 124l37 -96l-226 -107z" />
    <glyph glyph-name="ocircumflex" unicode="&#xf4;" horiz-adv-x="610" 
d="M30 264q9 59 38 109.5t71.5 87t96 57t113.5 20.5t107.5 -20.5t79 -57.5t42 -77t10.5 -72q0 -23 -4 -47q-9 -59 -38 -109t-72 -86.5t-97 -57t-114 -20.5t-107 20.5t-78.5 57t-41.5 76t-10 71.5q0 23 4 48zM184 263q-2 -11 -2 -21q0 -14 4.5 -32t18 -35t35 -27t48.5 -10
t51 10t42.5 27t31 40t16.5 48q2 12 2 23q0 13 -4 31.5t-17 36t-34 27.5t-48 10q-28 0 -52.5 -10t-43.5 -27.5t-31.5 -41t-16.5 -49.5zM201 630l137 124h91l99 -124l-61 -56l-97 86l-126 -86z" />
    <glyph glyph-name="otilde" unicode="&#xf5;" horiz-adv-x="610" 
d="M30 264q9 59 38 109.5t71.5 87t96 57t113.5 20.5t107.5 -20.5t79 -57.5t42 -77t10.5 -72q0 -23 -4 -47q-9 -59 -38 -109t-72 -86.5t-97 -57t-114 -20.5t-107 20.5t-78.5 57t-41.5 76t-10 71.5q0 23 4 48zM184 263q-2 -11 -2 -21q0 -14 4.5 -32t18 -35t35 -27t48.5 -10
t51 10t42.5 27t31 40t16.5 48q2 12 2 23q0 13 -4 31.5t-17 36t-34 27.5t-48 10q-28 0 -52.5 -10t-43.5 -27.5t-31.5 -41t-16.5 -49.5zM385 707q9 -5 19 -10.5t22.5 -5.5t29.5 8t40 29l16 -86q-29 -22 -51 -33t-33.5 -12.5t-15.5 -1.5q-13 0 -27 5t-31 15q-9 5 -18.5 10.5
t-22.5 5.5t-30 -8t-40 -29l-15 86q29 23 51 33.5t33.5 12t15.5 1.5q13 0 26.5 -5t30.5 -15z" />
    <glyph glyph-name="odieresis" unicode="&#xf6;" horiz-adv-x="610" 
d="M30 264q9 59 38 109.5t71.5 87t96 57t113.5 20.5t107.5 -20.5t79 -57.5t42 -77t10.5 -72q0 -23 -4 -47q-9 -59 -38 -109t-72 -86.5t-97 -57t-114 -20.5t-107 20.5t-78.5 57t-41.5 76t-10 71.5q0 23 4 48zM184 263q-2 -11 -2 -21q0 -14 4.5 -32t18 -35t35 -27t48.5 -10
t51 10t42.5 27t31 40t16.5 48q2 12 2 23q0 13 -4 31.5t-17 36t-34 27.5t-48 10q-28 0 -52.5 -10t-43.5 -27.5t-31.5 -41t-16.5 -49.5zM237 669q4 26 23.5 43t45.5 17t39 -15t13 -34q0 -5 -1 -11q-4 -25 -23.5 -42t-45.5 -17t-39 15t-13 34q0 5 1 10zM386 669q4 26 23.5 43
t45.5 17t38.5 -15t12.5 -34q0 -5 -1 -11q-4 -25 -23 -42t-45 -17t-39 15t-13 34q0 5 1 10z" />
    <glyph glyph-name="divide" unicode="&#xf7;" horiz-adv-x="511" 
d="M177 459q0 32 23 55t57 23q32 0 55 -23t23 -55q0 -34 -23 -57t-55 -23q-34 0 -57 23t-23 57zM35 330h441v-108h-441v108zM177 95q0 32 23 55t57 23q32 0 55 -23t23 -55q0 -34 -23 -57t-55 -23q-34 0 -57 23t-23 57z" />
    <glyph glyph-name="oslash" unicode="&#xf8;" horiz-adv-x="610" 
d="M30 264q9 59 38 109.5t71.5 87t96 57t113.5 20.5q34 0 66 -8l35 62h86l-50 -90q57 -35 79.5 -87.5t22.5 -102.5q0 -23 -4 -48q-9 -59 -38 -109t-72 -86.5t-97 -57t-114 -20.5q-32 0 -62 6l-35 -63h-86l50 90q-59 34 -81.5 86.5t-22.5 102.5q0 25 4 51zM184 263
q-2 -11 -2 -22q0 -16 6 -36t24 -37l125 222q-3 0 -6 0.5t-7 0.5q-27 -1 -50.5 -11.5t-42.5 -28t-31 -40t-16 -48.5zM281 140q8 -2 14 -2q26 2 48.5 12.5t40 27.5t29.5 39t16 46q2 12 2 24q0 15 -5 34.5t-22 36.5z" />
    <glyph glyph-name="ugrave" unicode="&#xf9;" horiz-adv-x="612" 
d="M516 0h-149l12 76q-35 -40 -81.5 -63t-100.5 -23q-42 0 -73.5 14.5t-51 40t-25 52.5t-5.5 47q0 19 3 39l55 345h149l-47 -292q-2 -11 -2 -21q0 -31 19 -54t58 -23q25 0 47 10.5t39 28t29 40t17 47.5l42 264h149zM247 678l69 96l180 -124l-57 -79z" />
    <glyph glyph-name="uacute" unicode="&#xfa;" horiz-adv-x="612" 
d="M516 0h-149l12 76q-35 -40 -81.5 -63t-100.5 -23q-42 0 -73.5 14.5t-51 40t-25 52.5t-5.5 47q0 19 3 39l55 345h149l-47 -292q-2 -11 -2 -21q0 -31 19 -54t58 -23q25 0 47 10.5t39 28t29 40t17 47.5l42 264h149zM243 650l220 124l37 -96l-226 -107z" />
    <glyph glyph-name="ucircumflex" unicode="&#xfb;" horiz-adv-x="612" 
d="M516 0h-149l12 76q-35 -40 -81.5 -63t-100.5 -23q-42 0 -73.5 14.5t-51 40t-25 52.5t-5.5 47q0 19 3 39l55 345h149l-47 -292q-2 -11 -2 -21q0 -31 19 -54t58 -23q25 0 47 10.5t39 28t29 40t17 47.5l42 264h149zM203 630l137 124h91l99 -124l-61 -56l-97 86l-126 -86z
" />
    <glyph glyph-name="udieresis" unicode="&#xfc;" horiz-adv-x="612" 
d="M516 0h-149l12 76q-35 -40 -81.5 -63t-100.5 -23q-42 0 -73.5 14.5t-51 40t-25 52.5t-5.5 47q0 19 3 39l55 345h149l-47 -292q-2 -11 -2 -21q0 -31 19 -54t58 -23q25 0 47 10.5t39 28t29 40t17 47.5l42 264h149zM238 669q4 26 23.5 43t45.5 17t39 -15t13 -34q0 -5 -1 -11
q-4 -25 -23.5 -42t-45.5 -17t-39 15t-13 34q0 5 1 10zM387 669q4 26 23.5 43t45.5 17t38.5 -15t12.5 -34q0 -5 -1 -11q-4 -25 -23 -42t-45 -17t-39 15t-13 34q0 5 1 10z" />
    <glyph glyph-name="yacute" unicode="&#xfd;" horiz-adv-x="568" 
d="M66 -195l106 201l-118 522h158l63 -321l169 321h157l-392 -723h-143zM221 650l220 124l37 -96l-226 -107z" />
    <glyph glyph-name="thorn" unicode="&#xfe;" horiz-adv-x="634" 
d="M-15 -195l145 915h149l-40 -251q29 32 68 50.5t94 18.5t98 -20.5t70 -57.5t35 -75.5t8 -68.5q0 -25 -4 -53q-10 -59 -36 -109t-65 -86t-88 -56.5t-104 -20.5q-56 0 -89.5 18t-51.5 50l-40 -254h-149zM203 239q0 -44 28 -72.5t77 -28.5q29 0 53.5 10t43.5 27t31.5 40
t16.5 48q2 12 2 23q0 13 -4 31.5t-17.5 36t-35 27.5t-50.5 10q-49 0 -86 -29t-51 -73z" />
    <glyph glyph-name="ydieresis" unicode="&#xff;" horiz-adv-x="568" 
d="M66 -195l106 201l-118 522h158l63 -321l169 321h157l-392 -723h-143zM216 669q4 26 23.5 43t45.5 17t39 -15t13 -34q0 -5 -1 -11q-4 -25 -23.5 -42t-45.5 -17t-39 15t-13 34q0 5 1 10zM365 669q4 26 23.5 43t45.5 17t38.5 -15t12.5 -34q0 -5 -1 -11q-4 -25 -23 -42
t-45 -17t-39 15t-13 34q0 5 1 10z" />
    <glyph glyph-name="Dcroat" unicode="&#x110;" horiz-adv-x="715" 
d="M30 0l44 276h-58l19 120h58l43 274h271q74 0 132.5 -25t96.5 -69.5t50 -92.5t12 -86q0 -30 -5 -62q-12 -73 -46.5 -135t-86.5 -106t-118.5 -69t-140.5 -25h-271zM208 150h117q39 0 74 13.5t62 37.5t45 58t25 76q3 20 3 39t-5.5 45t-25 50t-50.5 37.5t-70 13.5h-117
l-19 -124h108l-19 -120h-108z" />
    <glyph glyph-name="dcroat" unicode="&#x111;" horiz-adv-x="636" 
d="M30 263q9 60 35.5 110t66 87t89 57.5t105.5 20.5q55 0 88.5 -19.5t50.5 -52.5l17 106h-86l15 94h86l8 54h149l-8 -54h50l-15 -94h-50l-91 -572h-149l10 62q-28 -33 -67.5 -52t-94.5 -19q-56 0 -99 20.5t-71 56.5t-36 74t-8 66q0 26 5 55zM437 285v3q0 45 -29.5 74
t-78.5 29q-29 0 -54 -10t-44 -27.5t-31.5 -41t-16.5 -49.5q-2 -11 -2 -21q0 -14 4.5 -32t18 -35t35.5 -27t50 -10q51 0 89.5 30.5t51.5 74.5z" />
    <glyph glyph-name="dotlessi" unicode="&#x131;" horiz-adv-x="261" 
d="M100 528h149l-84 -528h-149z" />
    <glyph glyph-name="Lslash" unicode="&#x141;" horiz-adv-x="532" 
d="M68 243l-61 -18l19 120l61 18l49 307h154l-42 -264l142 40l-19 -120l-142 -40l-22 -146h287l-23 -140h-441z" />
    <glyph glyph-name="lslash" unicode="&#x142;" horiz-adv-x="261" 
d="M75 374l55 346h149l-43 -271l62 28l-19 -120l-62 -28l-52 -329h-149l40 254l-62 -28l20 120z" />
    <glyph glyph-name="OE" unicode="&#x152;" horiz-adv-x="883" 
d="M47 335q11 69 47.5 129.5t90.5 106t121 72.5t138 27h464l-22 -137h-278l-21 -133h220l-21 -132h-220l-20 -131h278l-22 -137h-464q-71 0 -129.5 26.5t-98 72t-53.5 94.5t-14 90q0 25 4 52zM452 516h-32q-38 -1 -73.5 -15.5t-64 -39t-48 -57t-25.5 -68.5q-2 -14 -2 -28
q0 -22 7.5 -48.5t28 -51t51.5 -39t69 -15.5h32z" />
    <glyph glyph-name="oe" unicode="&#x153;" horiz-adv-x="1005" 
d="M30 264q9 59 38 109.5t72 87t96.5 57t113.5 20.5t107.5 -22.5t78.5 -61.5q42 38 96 60.5t114 22.5q56 0 101 -16.5t76 -47t45.5 -69.5t14.5 -81v-16q-1 -23 -3 -40t-7 -37h-395q0 -46 28 -76t80 -30q32 0 61.5 16t46.5 39h162q-35 -87 -113 -138t-181 -51
q-61 0 -109 22.5t-77 61.5q-43 -39 -97.5 -61t-115.5 -22q-60 0 -107 20.5t-78.5 57t-41.5 76t-10 71.5q0 23 4 48zM826 312q0 40 -27 65.5t-72 25.5q-46 0 -81 -25t-52 -66h232zM184 263q-2 -11 -2 -21q0 -14 4.5 -32t18 -35t34.5 -27t49 -10q27 0 51 10t42.5 27t31 40
t16.5 48q2 12 2 23q0 13 -4 31.5t-17.5 36t-34 27.5t-47.5 10q-28 0 -52.5 -10t-43.5 -27.5t-31.5 -41t-16.5 -49.5z" />
    <glyph glyph-name="Scaron" unicode="&#x160;" horiz-adv-x="645" 
d="M92 472q16 100 93 154t204 54q131 0 183 -52.5t52 -127.5q0 -19 -3 -40h-158q2 10 2 18q0 30 -21 52t-81 22q-49 0 -79 -18.5t-35 -52.5q-1 -5 -1 -11q0 -14 7.5 -26.5t24 -22.5t40 -16.5t50.5 -12.5q41 -9 84 -19.5t77.5 -31t50 -50t15.5 -62.5q0 -17 -3 -36
q-15 -93 -91.5 -148t-216.5 -55q-143 0 -198.5 53t-55.5 126q0 19 3 40h158v-8q0 -84 115 -84q54 0 86 18t37 50q1 6 1 11q0 15 -8 27t-26.5 21t-43.5 15t-54 11q-40 8 -81 18t-72.5 31.5t-44.5 51t-13 62.5q0 18 3 39zM389 810l124 86l44 -56l-138 -124h-91l-98 124l60 56z
" />
    <glyph glyph-name="scaron" unicode="&#x161;" horiz-adv-x="538" 
d="M66 371q13 80 77 123.5t169 43.5q109 0 154 -42t45 -103q0 -13 -2 -28h-151q1 6 1 11q0 21 -15 34.5t-49 13.5q-72 0 -80 -47q-1 -4 -1 -8q0 -19 19.5 -30.5t52.5 -19t71.5 -14.5t70.5 -23t47 -40.5t15 -55.5q0 -13 -2 -29q-12 -76 -76.5 -120.5t-180.5 -44.5
q-120 0 -166.5 42t-46.5 100q0 15 3 31h150v-5q0 -55 78 -55q79 0 87 47q1 4 1 7q0 13 -10.5 22.5t-31 16t-47 11t-54 10.5t-53.5 15.5t-45 27t-25.5 38t-6.5 40.5q0 14 2 31zM335 668l124 86l44 -56l-138 -124h-91l-98 124l60 56z" />
    <glyph glyph-name="Ydieresis" unicode="&#x178;" horiz-adv-x="661" 
d="M249 670l103 -287l193 287h181l-324 -457l-34 -213h-154l34 213l-180 457h181zM263 811q4 26 23.5 43t45.5 17t39 -15t13 -34q0 -5 -1 -11q-4 -25 -23.5 -42t-45.5 -17t-39 15t-13 34q0 5 1 10zM412 811q4 26 23.5 43t45.5 17t38.5 -15t12.5 -34q0 -5 -1 -11
q-4 -25 -23 -42t-45 -17t-39 15t-13 34q0 5 1 10z" />
    <glyph glyph-name="Zcaron" unicode="&#x17d;" horiz-adv-x="594" 
d="M214 134h319l-21 -134h-510l21 134l384 402h-320l21 134h510l-21 -134zM364 810l124 86l44 -56l-138 -124h-91l-98 124l60 56z" />
    <glyph glyph-name="zcaron" unicode="&#x17e;" horiz-adv-x="490" 
d="M68 402l20 126h405l-20 -126l-276 -276h240l-20 -126h-424l20 126l280 276h-225zM312 668l124 86l44 -56l-138 -124h-91l-98 124l60 56z" />
    <glyph glyph-name="florin" unicode="&#x192;" horiz-adv-x="419" 
d="M53 408l19 120h83l3 18q15 97 67.5 146t140.5 49h130l-21 -130h-101q-56 0 -69 -70l-2 -13h147l-19 -120h-147l-68 -431q-30 -189 -220 -189h-67l21 130h37q72 0 85 88l63 402h-82z" />
    <glyph glyph-name="circumflex" unicode="&#x2c6;" horiz-adv-x="369" 
d="M81 630l137 124h91l99 -124l-61 -56l-97 86l-126 -86z" />
    <glyph glyph-name="caron" unicode="&#x2c7;" horiz-adv-x="369" 
d="M251 668l124 86l44 -56l-138 -124h-91l-98 124l60 56z" />
    <glyph glyph-name="breve" unicode="&#x2d8;" horiz-adv-x="330" 
d="M232 677q21 0 35 13.5t16 31.5h100q-4 -26 -16 -52t-32.5 -47t-50 -34t-68.5 -13t-64.5 13t-39.5 34t-16.5 40t-2.5 31q0 14 2 28h100v-6q0 -14 8 -26.5t29 -12.5z" />
    <glyph glyph-name="dotaccent" unicode="&#x2d9;" horiz-adv-x="187" 
d="M86 666q5 29 29.5 50t55.5 21t46 -18.5t15 -39.5q0 -6 -1 -13q-5 -30 -28.5 -50.5t-54.5 -20.5q-32 0 -47.5 18t-15.5 40q0 6 1 13z" />
    <glyph glyph-name="ring" unicode="&#x2da;" horiz-adv-x="270" 
d="M87 671q8 51 44.5 82.5t87.5 31.5q52 0 75 -28t23 -63q0 -11 -2 -23q-8 -52 -44 -83.5t-88 -31.5q-51 0 -74.5 28t-23.5 64q0 11 2 23zM168 671q-1 -4 -1 -8q0 -26 29 -26q34 0 39 34q1 5 1 9q0 24 -29 24q-33 0 -39 -33z" />
    <glyph glyph-name="ogonek" unicode="&#x2db;" horiz-adv-x="212" 
d="M58 10h94q-23 -14 -39 -34t-18 -37v-4q0 -30 41 -30l-14 -90h-75q-42 0 -63 20.5t-21 47.5q0 6 1 12q5 30 29.5 62t64.5 53z" />
    <glyph glyph-name="tilde" unicode="&#x2dc;" horiz-adv-x="332" 
d="M246 707q9 -5 19 -10.5t22.5 -5.5t29.5 8t40 29l16 -86q-29 -22 -51 -33t-33.5 -12.5t-15.5 -1.5q-13 0 -27 5t-31 15q-9 5 -18.5 10.5t-22.5 5.5t-30 -8t-40 -29l-15 86q29 23 51 33.5t33.5 12t15.5 1.5q13 0 26.5 -5t30.5 -15z" />
    <glyph glyph-name="hungarumlaut" unicode="&#x2dd;" horiz-adv-x="339" 
d="M147 747h106l-81 -166h-99zM290 747h106l-81 -166h-99z" />
    <glyph glyph-name="uni03BC" unicode="&#x3bc;" horiz-adv-x="612" 
d="M134 -195h-149l114 723h149l-45 -292q-2 -13 -2 -24q0 -29 18 -51.5t57 -22.5q25 0 47 10.5t39.5 28t29.5 40t17 47.5l41 264h149l-83 -528h-149l12 76q-33 -38 -77.5 -61t-95.5 -25q-24 0 -41 11z" />
    <glyph glyph-name="endash" unicode="&#x2013;" horiz-adv-x="572" 
d="M50 346h502l-20 -120h-502z" />
    <glyph glyph-name="emdash" unicode="&#x2014;" horiz-adv-x="1074" 
d="M50 346h1004l-20 -120h-1004z" />
    <glyph glyph-name="quoteleft" unicode="&#x2018;" horiz-adv-x="197" 
d="M200 496h-127l46 225h107z" />
    <glyph glyph-name="quoteright" unicode="&#x2019;" horiz-adv-x="197" 
d="M109 721h127l-45 -225h-108z" />
    <glyph glyph-name="quotesinglbase" unicode="&#x201a;" horiz-adv-x="211" 
d="M18 104h127l-45 -225h-108z" />
    <glyph glyph-name="quotedblleft" unicode="&#x201c;" horiz-adv-x="370" 
d="M373 496h-126l46 225h107zM200 496h-127l46 225h107z" />
    <glyph glyph-name="quotedblright" unicode="&#x201d;" horiz-adv-x="370" 
d="M109 721h127l-46 -225h-108zM283 721h126l-45 -225h-108z" />
    <glyph glyph-name="quotedblbase" unicode="&#x201e;" horiz-adv-x="384" 
d="M18 104h127l-45 -225h-108zM192 104h126l-45 -225h-107z" />
    <glyph glyph-name="dagger" unicode="&#x2020;" horiz-adv-x="364" 
d="M147 426h-82l16 102h83l36 232h124l-36 -232h81l-16 -102h-82l-89 -566h-124z" />
    <glyph glyph-name="daggerdbl" unicode="&#x2021;" horiz-adv-x="364" 
d="M101 134h-81l16 102h82l23 148h-82l16 102h82l43 274h124l-43 -274h82l-16 -102h-82l-23 -148h82l-16 -102h-83l-43 -274h-124z" />
    <glyph glyph-name="bullet" unicode="&#x2022;" horiz-adv-x="299" 
d="M44 343q0 49 28.5 77.5t76.5 28.5q49 0 77.5 -28.5t28.5 -77.5q0 -48 -28.5 -76.5t-77.5 -28.5q-48 0 -76.5 28.5t-28.5 76.5z" />
    <glyph glyph-name="ellipsis" unicode="&#x2026;" horiz-adv-x="735" 
d="M25 70q3 16 11 30.5t20.5 25t28 16.5t32.5 6q32 0 49.5 -20.5t17.5 -44.5q0 -6 -1 -13q-5 -34 -32 -57t-59 -23q-34 0 -51 20.5t-17 45.5q0 7 1 14zM270 70q3 16 11 30.5t20.5 25t28 16.5t32.5 6q32 0 49.5 -20.5t17.5 -44.5q0 -6 -1 -13q-5 -34 -32 -57t-59 -23
q-34 0 -51 20.5t-17 45.5q0 7 1 14zM515 70q3 16 11 30.5t20.5 25t28 16.5t32.5 6q32 0 49.5 -20.5t17.5 -44.5q0 -6 -1 -13q-5 -34 -32 -57t-59 -23q-34 0 -51 20.5t-17 45.5q0 7 1 14z" />
    <glyph glyph-name="perthousand" unicode="&#x2030;" horiz-adv-x="1395" 
d="M71 483q15 92 74 144.5t144 52.5t121 -45.5t36 -105.5q0 -22 -4 -46q-7 -46 -26 -82.5t-47 -62t-64.5 -39t-78.5 -13.5q-85 0 -121.5 46t-36.5 107q0 21 3 44zM203 0l466 670h121l-466 -670h-121zM195 483q-3 -17 -3 -31q0 -22 10 -42t41 -20q30 0 50 25t27 68q3 16 3 29
q0 23 -10 43.5t-41 20.5t-50.5 -25t-26.5 -68zM550 187q7 46 26 82.5t47.5 62t65 39t78.5 13.5q85 0 121.5 -46t36.5 -107q0 -21 -4 -44q-15 -92 -73.5 -144.5t-143.5 -52.5t-121.5 45.5t-36.5 105.5q0 22 4 46zM979 187q7 46 26 82.5t47.5 62t65 39t78.5 13.5
q85 0 121.5 -46t36.5 -107q0 -21 -4 -44q-15 -92 -73.5 -144.5t-143.5 -52.5t-121.5 45.5t-36.5 105.5q0 22 4 46zM673 187q-3 -16 -3 -29q0 -23 10 -43.5t41 -20.5t51 25t27 68q3 16 3 29q0 23 -10 43.5t-41 20.5t-51 -25t-27 -68zM1102 187q-3 -16 -3 -29q0 -23 10 -43.5
t41 -20.5t51 25t27 68q3 16 3 29q0 23 -10 43.5t-41 20.5t-51 -25t-27 -68z" />
    <glyph glyph-name="guilsinglleft" unicode="&#x2039;" horiz-adv-x="301" 
d="M31 229l20 123l253 135l-21 -127l-138 -70l116 -69l-20 -127z" />
    <glyph glyph-name="guilsinglright" unicode="&#x203a;" horiz-adv-x="301" 
d="M10 94l20 127l138 69l-116 70l21 127l209 -135l-20 -123z" />
    <glyph glyph-name="fraction" unicode="&#x2044;" horiz-adv-x="420" 
d="M376 710h116l-422 -750h-116z" />
    <glyph glyph-name="Euro" unicode="&#x20ac;" horiz-adv-x="792" 
d="M88 335q2 8 4 20h-68l12 75h81q24 54 63 100t87.5 79t105 52t115.5 19q65 0 118 -20t91.5 -56t60.5 -86t23 -110h-171q-9 52 -48 83t-99 31q-50 0 -95.5 -25t-74.5 -67h180l-12 -75h-206q-1 -4 -2 -7l-1 -5q0 -4 -2 -8q-2 -10 -2 -19.5v-18.5h204l-12 -75h-167
q20 -34 53 -54t78 -20q59 0 108 31t75 83h171q-20 -60 -58 -110t-88 -86t-109.5 -56t-124.5 -20q-56 0 -104.5 17.5t-86.5 48t-63 73t-35 93.5h-86l12 75h69q1 9 1.5 18.5t2.5 19.5z" />
    <glyph glyph-name="trademark" unicode="&#x2122;" horiz-adv-x="885" 
d="M194 580h-110l14 90h327l-14 -90h-111l-46 -282h-106zM460 670h154l32 -179l91 179h155l-60 -372h-107l42 250l-91 -180h-97l-31 180l-42 -250h-106z" />
    <glyph glyph-name="minus" unicode="&#x2212;" horiz-adv-x="358" 
d="M35 346h288v-120h-288v120z" />
    <glyph glyph-name=".ttfautohint" horiz-adv-x="410" 
 />
    </font>
</defs>
</svg>
